<svg width="284" height="115" viewBox="0 0 284 115" fill="none" xmlns="http://www.w3.org/2000/svg">
<path d="M29.8113 0.839994H66.2913L43.8913 64.84H51.2513V53.64L58.1313 37.64H87.0913V64.84H93.8113V89.64L87.0913 95.4V113H51.2513V95.4H6.93126L0.851256 79.72L29.8113 0.839994ZM98.1875 33.96C98.1875 22.76 100.854 14.3333 106.188 8.68C111.628 2.92 119.628 0.0399952 130.188 0.0399952H155.468C165.388 0.0399952 172.961 3.02666 178.188 8.99999C183.414 14.9733 186.028 23.2933 186.028 33.96V82.12C186.028 91.9333 183.361 99.72 178.028 105.48C172.694 111.24 165.121 114.12 155.308 114.12H129.868C119.521 114.12 111.628 111.4 106.188 105.96C100.854 100.52 98.1875 92.5733 98.1875 82.12V33.96ZM133.708 76.36C133.708 78.6 134.081 80.1467 134.828 81C135.574 81.7467 136.908 82.12 138.828 82.12H145.068C146.668 82.12 147.894 81.7467 148.748 81C149.601 80.1467 150.028 78.6533 150.028 76.52V37.64C150.028 35.2933 149.708 33.8 149.068 33.16C148.428 32.4133 147.574 32.04 146.508 32.04H137.708C136.214 32.04 135.148 32.4667 134.508 33.32C133.974 34.0667 133.708 35.5067 133.708 37.64V76.36ZM219.893 0.839994H256.373L233.973 64.84H241.333V53.64L248.213 37.64H277.173V64.84H283.893V89.64L277.173 95.4V113H241.333V95.4H197.013L190.933 79.72L219.893 0.839994Z" fill="currentColor"/>
</svg>
