<svg width="24" height="24" viewBox="0 0 24 24" fill="none" xmlns="http://www.w3.org/2000/svg">
<path d="M14 9.99991L20.5 3.49991M20.9011 7.99988L20.9949 4.02336C21.0062 3.54187 21.0119 3.30112 20.8642 3.1505C20.7165 2.99988 20.4748 2.99988 19.9914 2.99988H16" stroke="currentColor" stroke-width="2" stroke-linecap="round" stroke-linejoin="round"/>
<path d="M10.0001 9.99989L3.50008 3.49989M8.00012 2.99982H4.00012C3.52872 2.99982 3.29302 2.99982 3.14657 3.14626C3.00012 3.29271 3.00012 3.52841 3.00012 3.99982V7.99982" stroke="currentColor" stroke-width="2" stroke-linecap="round" stroke-linejoin="round"/>
<path d="M9.99998 13.9999L3.49998 20.4999M3 15.9998V19.9998C3 20.4712 3 20.7069 3.14645 20.8534C3.29289 20.9998 3.5286 20.9998 4 20.9998H8" stroke="currentColor" stroke-width="2" stroke-linecap="round" stroke-linejoin="round"/>
<path d="M14 13.9999L20.5 20.4999M16 20.9998H20C20.4714 20.9998 20.7071 20.9998 20.8536 20.8534C21 20.7069 21 20.4712 21 19.9998V15.9998" stroke="currentColor" stroke-width="2" stroke-linecap="round" stroke-linejoin="round"/>
</svg>
