<svg width="64" height="65" viewBox="0 0 64 65" fill="none" xmlns="http://www.w3.org/2000/svg">
<path d="M0 6.36388C0 3.12535 2.62535 0.5 5.86387 0.5H50.1361C53.3747 0.5 56 3.12535 56 6.36387V50.6361C56 53.8747 53.3747 56.5 50.1361 56.5H5.86388C2.62535 56.5 0 53.8747 0 50.6361V6.36388Z" fill="url(#paint0_linear_3142_5748)"/>
<path d="M18.7646 0.5H37.529V18.678C37.529 19.0019 37.2665 19.2644 36.9427 19.2644H34.3039L31.0788 12.5209L28.1468 19.2644H19.351C19.0272 19.2644 18.7646 19.0019 18.7646 18.678V0.5Z" fill="#F5F5F6"/>
<path d="M5.86377 41.5471C5.86377 39.604 7.43898 38.0288 9.38209 38.0288H21.6962C23.6393 38.0288 25.2146 39.604 25.2146 41.5471V46.8246C25.2146 48.7677 23.6393 50.3429 21.6962 50.3429H9.38209C7.43898 50.3429 5.86377 48.7677 5.86377 46.8246V41.5471Z" fill="#FD9C1D"/>
<path d="M64 52.5C64 59.1274 58.6274 64.5 52 64.5C45.3726 64.5 40 59.1274 40 52.5C40 45.8726 45.3726 40.5 52 40.5C58.6274 40.5 64 45.8726 64 52.5Z" fill="#DC3134"/>
<path d="M56.5 48L52 52.5M52 52.5L47.5 57M52 52.5L56.5 57M52 52.5L47.5 48" stroke="#F8D6D6" stroke-width="3" stroke-linecap="round" stroke-linejoin="round"/>
<defs>
<linearGradient id="paint0_linear_3142_5748" x1="28" y1="0.5" x2="28" y2="56.5" gradientUnits="userSpaceOnUse">
<stop stop-color="#FFD065"/>
<stop offset="1" stop-color="#FCB108"/>
</linearGradient>
</defs>
</svg>
