<svg width="64" height="65" viewBox="0 0 64 65" fill="none" xmlns="http://www.w3.org/2000/svg">
<path d="M0 6.36388C0 3.12535 2.62535 0.5 5.86387 0.5H50.1361C53.3747 0.5 56 3.12535 56 6.36387V50.6361C56 53.8747 53.3747 56.5 50.1361 56.5H5.86388C2.62535 56.5 0 53.8747 0 50.6361V6.36388Z" fill="url(#paint0_linear_3142_5717)"/>
<path d="M18.7646 0.5H37.529V18.678C37.529 19.0019 37.2665 19.2644 36.9427 19.2644H34.3039L31.0788 12.5209L28.1468 19.2644H19.351C19.0272 19.2644 18.7646 19.0019 18.7646 18.678V0.5Z" fill="#F5F5F6"/>
<path d="M5.86377 41.5471C5.86377 39.604 7.43898 38.0288 9.38209 38.0288H21.6962C23.6393 38.0288 25.2146 39.604 25.2146 41.5471V46.8246C25.2146 48.7677 23.6393 50.3429 21.6962 50.3429H9.38209C7.43898 50.3429 5.86377 48.7677 5.86377 46.8246V41.5471Z" fill="#FD9C1D"/>
<path d="M64 52.5C64 59.1274 58.6274 64.5 52 64.5C45.3726 64.5 40 59.1274 40 52.5C40 45.8726 45.3726 40.5 52 40.5C58.6274 40.5 64 45.8726 64 52.5Z" fill="#1E86E2"/>
<path d="M63 41.5C63 39.8431 61.6569 38.5 60 38.5C58.3431 38.5 57 39.8431 57 41.5C57 43.1569 58.3431 44.5 60 44.5C61.6569 44.5 63 43.1569 63 41.5Z" fill="#1E86E2"/>
<path d="M52 44.5C50.6844 44.5 49.3891 44.8245 48.2288 45.4446C47.0686 46.0648 46.0792 46.9616 45.3482 48.0554C44.6173 49.1493 44.1675 50.4066 44.0385 51.7159C43.9096 53.0251 44.1055 54.346 44.609 55.5615C45.1124 56.7769 45.9079 57.8495 46.9249 58.6841C47.9418 59.5187 49.149 60.0896 50.4393 60.3463C51.7296 60.6029 53.0633 60.5374 54.3223 60.1555C55.5812 59.7736 56.7266 59.0871 57.6569 58.1569L52 52.5V44.5Z" fill="#A4D5FF"/>
<defs>
<linearGradient id="paint0_linear_3142_5717" x1="28" y1="0.5" x2="28" y2="56.5" gradientUnits="userSpaceOnUse">
<stop stop-color="#FFD065"/>
<stop offset="1" stop-color="#FCB108"/>
</linearGradient>
</defs>
</svg>
