<svg width="16" height="16" viewBox="0 0 16 16" fill="none" xmlns="http://www.w3.org/2000/svg">
<path d="M12 1.33331V2.66665M4 1.33331V2.66665" stroke="#363636" stroke-width="1.5" stroke-linecap="round" stroke-linejoin="round"/>
<path d="M6.66667 11.3334L6.66666 8.89817C6.66666 8.77032 6.5755 8.66669 6.46305 8.66669H6M9.08644 11.3334L9.98945 8.89946C10.0317 8.78566 9.94189 8.66669 9.81379 8.66669H8.66667" stroke="#363636" stroke-width="1.5" stroke-linecap="round"/>
<path d="M1.66675 8.16216C1.66675 5.25729 1.66675 3.80486 2.50149 2.90243C3.33624 2 4.67974 2 7.36675 2H8.63341C11.3204 2 12.6639 2 13.4987 2.90243C14.3334 3.80486 14.3334 5.25729 14.3334 8.16216V8.5045C14.3334 11.4094 14.3334 12.8618 13.4987 13.7642C12.6639 14.6667 11.3204 14.6667 8.63341 14.6667H7.36675C4.67974 14.6667 3.33624 14.6667 2.50149 13.7642C1.66675 12.8618 1.66675 11.4094 1.66675 8.5045V8.16216Z" stroke="#363636" stroke-width="1.5" stroke-linecap="round" stroke-linejoin="round"/>
<path d="M4 5.33331H12" stroke="#363636" stroke-width="1.5" stroke-linecap="round" stroke-linejoin="round"/>
</svg>
