<svg width="159" height="284" viewBox="0 0 159 284" fill="none" xmlns="http://www.w3.org/2000/svg">
<path d="M192.326 0H167.588H154.498H130.943H1.96167L73.71 69.4052H121.501V76.9134L161.205 116.593L200.482 77.3428V69.4523H250.535L320.026 0H192.326ZM177.802 77.0547L163.78 91.0682H159.272L134.234 66.0445L149.938 50.3521C157.199 39.1618 143.964 31.5123 137.416 37.8403L124.647 50.6014H82.8667L50.8169 18.571H125.864C132.967 18.4574 139.182 19.2581 142.961 22.5745L177.802 57.3949V77.0547ZM244.48 50.5294H200.266L178.947 27.6141C175.371 21.9483 181.808 18.571 187.926 18.6431H276.388L244.48 50.5294Z" fill="#363636"/>
<path d="M123.398 83.2809L140.905 101.058C136.167 144.809 126.985 183.573 112.481 216.366L152.92 257.427H158.204V283.155H150.601L85.6629 217.217C104.816 180.944 119.247 138.656 123.398 83.2809Z" fill="#363636"/>
<path d="M193.008 83.2809L175.502 101.057C180.24 144.808 189.422 183.572 203.925 216.364L163.488 257.428L158.204 257.427V283.155H165.807L230.745 217.215C211.59 180.943 197.162 138.655 193.008 83.2809Z" fill="#363636"/>
<path d="M158.204 257.427H152.92L112.481 216.366C126.985 183.573 136.167 144.809 140.905 101.058L123.398 83.2809C119.247 138.656 104.816 180.944 85.6629 217.217L150.601 283.155H158.204M158.204 257.427V283.155M158.204 257.427L163.488 257.428L203.925 216.364C189.422 183.572 180.24 144.808 175.502 101.057L193.008 83.2809C197.162 138.655 211.59 180.943 230.745 217.215L165.807 283.155H158.204M192.326 0H167.588H154.498H130.943H1.96167L73.71 69.4052H121.501V76.9134L161.205 116.593L200.482 77.3429V69.4523H250.535L320.026 0H192.326ZM177.802 77.0547L163.78 91.0682H159.272L134.234 66.0445L149.938 50.3521C157.199 39.1618 143.964 31.5123 137.416 37.8403L124.647 50.6014H82.8667L50.8169 18.571H125.864C132.967 18.4574 139.182 19.2581 142.961 22.5745L177.802 57.3949V77.0547ZM244.48 50.5294H200.266L178.947 27.6141C175.371 21.9483 181.808 18.571 187.926 18.6431H276.389L244.48 50.5294Z" stroke="#363636" stroke-miterlimit="10"/>
</svg>
