<svg width="51" height="51" viewBox="0 0 51 51" fill="none" xmlns="http://www.w3.org/2000/svg">
<path d="M29.75 12.75H46.75M38.25 4.25L38.25 21.25" stroke="#FCB108" stroke-width="2" stroke-linecap="round" stroke-linejoin="round"/>
<path d="M12.96 41.4375C10.1972 41.1658 8.1276 40.3359 6.73959 38.9479C4.25 36.4583 4.25 32.4514 4.25 24.4375V23.375C4.25 15.3611 4.25 11.3542 6.73959 8.86459C9.22918 6.375 13.2361 6.375 21.25 6.375H24.4375M13.8125 38.25C13.3759 40.379 11.4276 44.9789 13.4209 46.4634C14.4627 47.2213 16.123 46.4117 19.4435 44.7926C21.7739 43.6563 24.132 42.3532 26.6785 41.7669C27.6104 41.5547 28.559 41.4641 29.75 41.4375C37.7639 41.4375 41.7708 41.4375 44.2604 38.9479C46.6375 36.5709 46.7449 32.8106 46.7498 25.5" stroke="#FCB108" stroke-width="2" stroke-linecap="round"/>
<path d="M17 29.75H29.75M17 19.125H23.375" stroke="#FCB108" stroke-width="2" stroke-linecap="round" stroke-linejoin="round"/>
</svg>
