<svg width="36" height="36" viewBox="0 0 36 36" fill="none" xmlns="http://www.w3.org/2000/svg">
<path d="M27.1667 15.5L30.5 18.8333M21.3333 21.3333L24.6667 24.6667M15.5 27.1667L18.8333 30.5" stroke="#363636" stroke-width="2" stroke-linecap="round"/>
<path d="M15.5594 5.79613C17.8339 3.52161 18.9712 2.38435 20.2398 1.85885C21.9314 1.15818 23.832 1.15818 25.5236 1.85885C26.7923 2.38435 27.9295 3.52161 30.204 5.79613C32.4786 8.07065 33.6158 9.2079 34.1413 10.4766C34.842 12.1681 34.842 14.0688 34.1413 15.7603C33.6158 17.029 32.4786 18.1663 30.204 20.4408L20.4409 30.2039C18.1664 32.4784 17.0292 33.6157 15.7605 34.1412C14.0689 34.8418 12.1683 34.8418 10.4767 34.1412C9.20806 33.6157 8.0708 32.4784 5.79628 30.2039C3.52176 27.9294 2.3845 26.7921 1.859 25.5234C1.15833 23.8319 1.15833 21.9313 1.859 20.2397C2.3845 18.971 3.52176 17.8338 5.79628 15.5592L15.5594 5.79613Z" stroke="#363636" stroke-width="2" stroke-linecap="round" stroke-linejoin="round"/>
</svg>
