<svg width="22" height="20" viewBox="0 0 22 20" fill="none" xmlns="http://www.w3.org/2000/svg">
<path d="M4.25345 2.19584L3.02558 2.90813C2.03739 3.48137 1.54329 3.768 1.27164 4.24483C1 4.72165 1 5.30233 1 6.46368V14.6283C1 16.1542 1 16.9172 1.34226 17.3418C1.57001 17.6244 1.88916 17.8143 2.242 17.8773C2.77226 17.9719 3.42148 17.5953 4.71987 16.8421C5.60156 16.3306 6.45011 15.7994 7.50487 15.9435C7.98466 16.009 8.44231 16.2366 9.3576 16.6917L13.1715 18.588C13.9964 18.9982 14.004 19 14.9214 19H17C18.8856 19 19.8284 19 20.4142 18.4013C21 17.8026 21 16.8389 21 14.9117V8.17148C21 6.24423 21 5.2806 20.4142 4.68188C19.8284 4.08316 18.8856 4.08316 17 4.08316H14.9214C14.004 4.08316 13.9964 4.08139 13.1715 3.6712L9.83987 2.01463C8.44884 1.32297 7.75332 0.977138 7.01238 1.00117C6.27143 1.02521 5.59877 1.41542 4.25345 2.19584Z" stroke="#363636" stroke-width="1.5" stroke-linecap="round" stroke-linejoin="round"/>
<path d="M7 1L7 15.5" stroke="#363636" stroke-width="1.5" stroke-linecap="round" stroke-linejoin="round"/>
<path d="M14 4.5L14 18.5" stroke="#363636" stroke-width="1.5" stroke-linecap="round" stroke-linejoin="round"/>
</svg>
