<svg width="32" height="32" viewBox="0 0 32 32" fill="none" xmlns="http://www.w3.org/2000/svg">
<path d="M26.0007 23.3333C26.0007 25.1743 24.5083 26.6667 22.6673 26.6667C20.8264 26.6667 19.334 25.1743 19.334 23.3333C19.334 21.4924 20.8264 20 22.6673 20C24.5083 20 26.0007 21.4924 26.0007 23.3333Z" stroke="currentColor" stroke-width="2"/>
<path d="M12.6667 23.3333C12.6667 25.1743 11.1743 26.6667 9.33333 26.6667C7.49238 26.6667 6 25.1743 6 23.3333C6 21.4924 7.49238 20 9.33333 20C11.1743 20 12.6667 21.4924 12.6667 23.3333Z" stroke="currentColor" stroke-width="2"/>
<path d="M19.3337 23.3335H12.667M2.66699 5.3335H16.0003C17.8859 5.3335 18.8288 5.3335 19.4145 5.91928C20.0003 6.50507 20.0003 7.44788 20.0003 9.3335V20.6668M20.667 8.66683H23.0689C24.1751 8.66683 24.7282 8.66683 25.1867 8.92643C25.6452 9.18603 25.9297 9.6603 26.4989 10.6088L28.7636 14.3834C29.0469 14.8555 29.1885 15.0916 29.2611 15.3536C29.3337 15.6156 29.3337 15.8909 29.3337 16.4414V20.0002C29.3337 21.2463 29.3337 21.8694 29.0657 22.3335C28.8902 22.6375 28.6377 22.89 28.3337 23.0655C27.8696 23.3335 27.2465 23.3335 26.0003 23.3335M2.66699 17.3335V20.0002C2.66699 21.2463 2.66699 21.8694 2.93494 22.3335C3.11048 22.6375 3.36295 22.89 3.66699 23.0655C4.13109 23.3335 4.75417 23.3335 6.00033 23.3335" stroke="currentColor" stroke-width="2" stroke-linecap="round" stroke-linejoin="round"/>
<path d="M2.66699 9.3335H10.667M2.66699 13.3335H8.00033" stroke="currentColor" stroke-width="2" stroke-linecap="round" stroke-linejoin="round"/>
</svg>
