<svg width="16" height="16" viewBox="0 0 16 16" fill="none" xmlns="http://www.w3.org/2000/svg">
<g clip-path="url(#clip0_2623_13902)">
<path d="M9.38239 2.59028C9.87918 2.05203 10.1276 1.78291 10.3915 1.62593C11.0284 1.24715 11.8126 1.23537 12.4602 1.59486C12.7285 1.74385 12.9845 2.00539 13.4966 2.52849C14.0087 3.05158 14.2647 3.31313 14.4106 3.58726C14.7625 4.24873 14.7509 5.04984 14.3801 5.70045C14.2265 5.97008 13.963 6.22383 13.4361 6.73132L7.167 12.7695C6.1685 13.7312 5.66925 14.2121 5.04529 14.4558C4.42133 14.6995 3.73539 14.6816 2.36349 14.6457L2.17684 14.6408C1.75919 14.6299 1.55036 14.6244 1.42898 14.4867C1.30759 14.3489 1.32416 14.1362 1.3573 13.7108L1.3753 13.4798C1.46859 12.2823 1.51523 11.6836 1.74906 11.1455C1.98288 10.6073 2.38621 10.1703 3.19287 9.29631L9.38239 2.59028Z" stroke="currentColor" stroke-width="1.5" stroke-linejoin="round"/>
<path d="M8.6665 2.66663L13.3332 7.33329" stroke="currentColor" stroke-width="1.5" stroke-linejoin="round"/>
<path d="M9.33325 14.6666L14.6666 14.6666" stroke="currentColor" stroke-width="1.5" stroke-linecap="round" stroke-linejoin="round"/>
</g>
<defs>
<clipPath id="clip0_2623_13902">
<rect width="16" height="16" fill="white"/>
</clipPath>
</defs>
</svg>
