<svg width="16" height="16" viewBox="0 0 16 16" fill="none" xmlns="http://www.w3.org/2000/svg">
<path d="M1.33317 5.33333C1.33317 5.33333 4.31794 2 7.99984 2C11.6817 2 14.6665 5.33333 14.6665 5.33333" stroke="#363636" stroke-width="1.5" stroke-linecap="round"/>
<path d="M14.3626 8.69668C14.5652 8.98089 14.6666 9.123 14.6666 9.33335C14.6666 9.54371 14.5652 9.68582 14.3626 9.97003C13.4519 11.2471 11.1261 14 7.99992 14C4.87377 14 2.54798 11.2471 1.63728 9.97003C1.43459 9.68582 1.33325 9.54371 1.33325 9.33335C1.33325 9.123 1.43459 8.98089 1.63728 8.69668C2.54798 7.41965 4.87377 4.66669 7.99992 4.66669C11.1261 4.66669 13.4519 7.41965 14.3626 8.69668Z" stroke="#363636" stroke-width="1.5"/>
<path d="M10 9.33331C10 8.22874 9.10457 7.33331 8 7.33331C6.89543 7.33331 6 8.22874 6 9.33331C6 10.4379 6.89543 11.3333 8 11.3333C9.10457 11.3333 10 10.4379 10 9.33331Z" stroke="#363636" stroke-width="1.5"/>
</svg>
