<svg width="40" height="40" viewBox="0 0 40 40" fill="none" xmlns="http://www.w3.org/2000/svg">
<path d="M20 35C17.7647 35 16.4762 34.0463 13.8992 32.1389C0.369545 22.1248 1.69679 10.2549 7.56241 6.65692C12.0318 3.91538 15.9327 5.02019 18.2761 6.78002C19.2369 7.5016 19.7174 7.86238 20 7.86238C20.2827 7.86238 20.7631 7.5016 21.7239 6.78002C24.0673 5.02019 27.9682 3.91538 32.4376 6.65692C35.3021 8.41397 37.0842 12.1437 36.5823 16.6667" stroke="#DC3134" stroke-width="2" stroke-linecap="round"/>
<path d="M23.3333 29.9997C23.3333 29.9997 25 29.9997 26.6667 33.333C26.6667 33.333 31.9608 24.9997 36.6667 23.333" stroke="#DC3134" stroke-width="2" stroke-linecap="round" stroke-linejoin="round"/>
</svg>
