<svg width="16" height="16" viewBox="0 0 16 16" fill="none" xmlns="http://www.w3.org/2000/svg">
<path d="M14 8C14 11.3137 11.3137 14 8 14C4.68629 14 2 11.3137 2 8C2 4.68629 4.68629 2 8 2" stroke="#363636" stroke-width="1.5" stroke-linecap="round"/>
<path d="M14.2231 2.86568C14.5171 2.57391 14.5189 2.09904 14.2271 1.80503C13.9353 1.51102 13.4605 1.50921 13.1665 1.80098L14.2231 2.86568ZM9.4717 5.46765C9.17769 5.75942 9.17588 6.23429 9.46765 6.5283C9.75942 6.82231 10.2343 6.82412 10.5283 6.53235L9.4717 5.46765ZM13.3523 2.15138L13.2215 2.88988L13.3523 2.15138ZM10.6666 1.25C10.2524 1.25004 9.91663 1.58585 9.91667 2.00007C9.9167 2.41428 10.2525 2.75004 10.6667 2.75L10.6666 1.25ZM13.25 5.33333C13.25 5.74755 13.5858 6.08333 14 6.08333C14.4142 6.08333 14.75 5.74755 14.75 5.33333H13.25ZM13.8486 2.64783L14.5872 2.51717V2.51717L13.8486 2.64783ZM13.1665 1.80098L9.4717 5.46765L10.5283 6.53235L14.2231 2.86568L13.1665 1.80098ZM13.4831 1.41287C12.9961 1.32662 12.275 1.28808 11.7137 1.26928C11.425 1.25961 11.1642 1.2548 10.9755 1.2524C10.8811 1.2512 10.8045 1.2506 10.7512 1.2503C10.7246 1.25015 10.7037 1.25008 10.6894 1.25004C10.6822 1.25002 10.6767 1.25001 10.6729 1.25C10.671 1.25 10.6695 1.25 10.6684 1.25C10.6679 1.25 10.6675 1.25 10.6672 1.25C10.667 1.25 10.6669 1.25 10.6668 1.25C10.6668 1.25 10.6667 1.25 10.6667 1.25C10.6666 1.25 10.6666 1.25 10.6667 2C10.6667 2.75 10.6667 2.75 10.6667 2.75C10.6667 2.75 10.6667 2.75 10.6667 2.75C10.6667 2.75 10.6668 2.75 10.6668 2.75C10.667 2.75 10.6672 2.75 10.6676 2.75C10.6683 2.75 10.6694 2.75 10.671 2.75C10.6742 2.75001 10.679 2.75002 10.6855 2.75003C10.6984 2.75007 10.7177 2.75014 10.7427 2.75028C10.7929 2.75056 10.8659 2.75113 10.9564 2.75228C11.1377 2.75459 11.3878 2.75921 11.6635 2.76844C12.2312 2.78745 12.8529 2.82459 13.2215 2.88988L13.4831 1.41287ZM14 5.33333C14.75 5.33333 14.75 5.3333 14.75 5.33325C14.75 5.33323 14.75 5.33318 14.75 5.33313C14.75 5.33303 14.75 5.33291 14.75 5.33276C14.75 5.33245 14.75 5.33204 14.75 5.33151C14.75 5.33047 14.75 5.32898 14.75 5.32706C14.75 5.32324 14.75 5.3177 14.75 5.31054C14.7499 5.29622 14.7498 5.27539 14.7497 5.24875C14.7494 5.19547 14.7488 5.11887 14.7476 5.02445C14.7452 4.83584 14.7403 4.575 14.7307 4.28631C14.7118 3.72507 14.6733 3.00404 14.5872 2.51717L13.1101 2.77849C13.1753 3.14724 13.2125 3.76896 13.2315 4.33657C13.2407 4.61231 13.2454 4.86241 13.2477 5.04364C13.2489 5.13414 13.2494 5.20718 13.2497 5.25732C13.2499 5.28239 13.2499 5.30171 13.25 5.31461C13.25 5.32106 13.25 5.3259 13.25 5.32905C13.25 5.33063 13.25 5.33178 13.25 5.33249C13.25 5.33285 13.25 5.3331 13.25 5.33324C13.25 5.33331 13.25 5.33336 13.25 5.33337C13.25 5.33338 13.25 5.33337 13.25 5.33337C13.25 5.33336 13.25 5.33333 14 5.33333ZM13.2215 2.88988C13.2068 2.88727 13.178 2.87674 13.1506 2.84932C13.1232 2.82191 13.1127 2.79313 13.1101 2.77849L14.5872 2.51717C14.4862 1.94626 14.0542 1.51401 13.4831 1.41287L13.2215 2.88988Z" fill="#363636"/>
</svg>
