<svg width="56" height="50" viewBox="2 -50 50 50" fill="none" xmlns="http://www.w3.org/2000/svg">
<g clip-path="url(#clip0_2305_11558)">
<path d="M33.2996 1.81818L29.1855 3.66453H27.0225L23.1568 1.81818H1.84412L13.6997 13.1825H21.5965V14.4119L28.1572 20.9091L34.6472 14.4822V13.1902H42.9179L54.4006 1.81818H33.2996ZM30.8997 14.4351L28.5827 16.7296H27.8379L23.7005 12.6323L26.2955 10.0628C27.4952 8.2305 25.3084 6.97798 24.2264 8.01411L22.1165 10.1036H15.2127L9.91686 4.85899H22.3175C23.4911 4.84039 24.5182 4.97149 25.1425 5.51451L30.8997 11.216V14.4351ZM41.9174 10.0918H34.6115L31.0889 6.3397C30.4979 5.41198 31.5616 4.85899 32.5726 4.87078H47.1899L41.9174 10.0918Z" fill="currentColor" stroke="currentColor" stroke-miterlimit="10"/>
<path d="M21.91 15.4546L24.8028 18.3653C24.0199 25.5291 22.5027 31.8764 20.1061 37.2458L26.7881 43.9692H27.6612V48.1818H26.4049L15.6747 37.3851C18.8395 31.4459 21.224 24.5216 21.91 15.4546Z" fill="currentColor" stroke="currentColor" stroke-miterlimit="10"/>
<path d="M33.4122 15.4546L30.5196 18.3653C31.3025 25.529 32.8196 31.8762 35.2161 37.2455L28.5344 43.9692H27.6613V48.1818H28.9176L39.6478 37.3848C36.4827 31.4457 34.0987 24.5215 33.4122 15.4546Z" fill="currentColor" stroke="currentColor" stroke-miterlimit="10"/>
</g>
<defs>
<clipPath id="clip0_2305_11558">
<rect width="56" height="50" fill="white"/>
</clipPath>
</defs>
</svg>
