<svg width="40" height="40" viewBox="0 0 40 40" fill="none" xmlns="http://www.w3.org/2000/svg">
<path d="M16.8014 3.33333C9.11703 4.89316 3.33331 11.687 3.33331 19.8316C3.33331 29.1294 10.8706 36.6667 20.1684 36.6667C28.313 36.6667 35.1068 30.883 36.6666 23.1986" stroke="currentColor" stroke-width="2" stroke-linecap="round"/>
<path d="M31.5625 30C32.2026 29.8611 32.7951 29.64 33.3333 29.3383M24.4792 28.901C25.4719 29.3359 26.4294 29.6581 27.3418 29.8697M18.091 24.9128C18.7801 25.3967 19.5167 25.9768 20.2338 26.4774M5 23.0416C5.53723 22.7792 6.11718 22.478 6.77083 22.2202M10.7517 21.6667C11.6882 21.7707 12.7383 22.0376 13.9291 22.5387" stroke="currentColor" stroke-width="2" stroke-linecap="round" stroke-linejoin="round"/>
<path d="M30.8333 11.6667C30.8333 10.2859 29.714 9.16666 28.3333 9.16666C26.9526 9.16666 25.8333 10.2859 25.8333 11.6667C25.8333 13.0474 26.9526 14.1667 28.3333 14.1667C29.714 14.1667 30.8333 13.0474 30.8333 11.6667Z" stroke="currentColor" stroke-width="2"/>
<path d="M28.3333 3.33333C32.8431 3.33333 36.6667 7.03022 36.6667 11.5153C36.6667 16.0718 32.7809 19.2693 29.1917 21.4436C28.9301 21.5898 28.6343 21.6667 28.3333 21.6667C28.0324 21.6667 27.7366 21.5898 27.475 21.4436C23.8925 19.2481 20 16.0875 20 11.5153C20 7.03022 23.8236 3.33333 28.3333 3.33333Z" stroke="currentColor" stroke-width="2"/>
</svg>
