<svg width="25" height="24" viewBox="0 0 25 24" fill="none" xmlns="http://www.w3.org/2000/svg">
<path d="M19.8333 14L20.6565 14.7579C20.8357 14.934 20.9253 15.0221 20.8938 15.0969C20.8622 15.1717 20.7355 15.1717 20.4821 15.1717H17.3777C15.7884 15.1717 14.5 16.438 14.5 18C14.5 18.3521 14.5655 18.6891 14.685 19M17.1667 22L16.3435 21.2421C16.1643 21.066 16.0747 20.9779 16.1062 20.9031C16.1378 20.8283 16.2645 20.8283 16.5179 20.8283H19.6223C21.2116 20.8283 22.5 19.562 22.5 18C22.5 17.6479 22.4345 17.3109 22.315 17" stroke="#AFAFAF" stroke-width="1.5" stroke-linecap="round" stroke-linejoin="round"/>
<path d="M22.4913 11.5C22.5 10.8993 22.5 10.7355 22.5 10C22.5 6.22876 22.5 4.34315 21.3284 3.17157C20.1569 2 18.2712 2 14.5 2H10.5C6.72876 2 4.84315 2 3.67157 3.17157C2.5 4.34315 2.5 6.22876 2.5 10C2.5 13.7712 2.5 15.6569 3.67157 16.8284C4.84315 18 6.72876 18 10.5 18H11.5" stroke="#AFAFAF" stroke-width="1.5" stroke-linecap="round"/>
<path d="M19 10H18.991" stroke="#AFAFAF" stroke-width="2" stroke-linecap="round" stroke-linejoin="round"/>
<path d="M6 10H5.99102" stroke="#AFAFAF" stroke-width="2" stroke-linecap="round" stroke-linejoin="round"/>
<path d="M15 10C15 11.3807 13.8807 12.5 12.5 12.5C11.1193 12.5 10 11.3807 10 10C10 8.61929 11.1193 7.5 12.5 7.5C13.8807 7.5 15 8.61929 15 10Z" stroke="#AFAFAF" stroke-width="1.5"/>
</svg>
