<svg width="12" height="12" viewBox="0 0 12 12" fill="none" xmlns="http://www.w3.org/2000/svg">
<g clip-path="url(#clip0_4673_9347)">
<path d="M5.96099 2.39502C8.34814 1.58123 9.54172 1.17433 10.1837 1.81631C10.8257 2.45828 10.4188 3.65185 9.60498 6.03901L9.05081 7.66459C8.42583 9.4979 8.11334 10.4146 7.59822 10.4904C7.45974 10.5108 7.31638 10.4985 7.17936 10.4546C6.66973 10.2909 6.40033 9.32445 5.86154 7.39148C5.74203 6.96273 5.68228 6.74836 5.5462 6.58462C5.50671 6.53711 5.46289 6.49329 5.41538 6.4538C5.25164 6.31772 5.03727 6.25797 4.60852 6.13846C2.67555 5.59967 1.70907 5.33027 1.54545 4.82064C1.50146 4.68362 1.48918 4.54026 1.50958 4.40178C1.58544 3.88666 2.5021 3.57417 4.3354 2.94919L5.96099 2.39502Z" stroke="currentColor" stroke-width="1.5"/>
</g>
<defs>
<clipPath id="clip0_4673_9347">
<rect width="12" height="12" fill="currentColor"/>
</clipPath>
</defs>
</svg>
