<svg width="40" height="40" viewBox="0 0 40 40" fill="none" xmlns="http://www.w3.org/2000/svg">
<path d="M28.3334 3.33333V6.66666M20.0001 3.33333V6.66666M11.6667 3.33333V6.66666" stroke="currentColor" stroke-width="2" stroke-linecap="round" stroke-linejoin="round"/>
<path d="M5.83337 16.6667C5.83337 11.1669 5.83337 8.41709 7.54192 6.70854C9.25046 5 12.0003 5 17.5 5H22.5C27.9998 5 30.7496 5 32.4582 6.70854C34.1667 8.41709 34.1667 11.1669 34.1667 16.6667V25C34.1667 30.4997 34.1667 33.2496 32.4582 34.9581C30.7496 36.6667 27.9998 36.6667 22.5 36.6667H17.5C12.0003 36.6667 9.25046 36.6667 7.54192 34.9581C5.83337 33.2496 5.83337 30.4997 5.83337 25V16.6667Z" stroke="currentColor" stroke-width="2" stroke-linecap="round" stroke-linejoin="round"/>
<path d="M13.3334 25H20M13.3334 16.6667H26.6667" stroke="currentColor" stroke-width="2" stroke-linecap="round"/>
</svg>
