<svg width="18" height="20" viewBox="0 0 18 20" fill="none" xmlns="http://www.w3.org/2000/svg">
<path d="M4.48131 12.9013C3.30234 13.6033 0.211137 15.0368 2.09388 16.8305C3.01359 17.7067 4.03791 18.3333 5.32572 18.3333H12.6743C13.9621 18.3333 14.9864 17.7067 15.9061 16.8305C17.7889 15.0368 14.6977 13.6033 13.5187 12.9013C10.754 11.2551 7.24599 11.2551 4.48131 12.9013Z" stroke="#FCB108" stroke-width="1.5" stroke-linecap="round" stroke-linejoin="round"/>
<path d="M12.75 5.41666C12.75 7.48772 11.0711 9.16666 9 9.16666C6.92893 9.16666 5.25 7.48772 5.25 5.41666C5.25 3.34559 6.92893 1.66666 9 1.66666C11.0711 1.66666 12.75 3.34559 12.75 5.41666Z" stroke="#FCB108" stroke-width="1.5"/>
</svg>
