<svg width="20" height="20" viewBox="0 0 20 20" fill="none" xmlns="http://www.w3.org/2000/svg">
<g clip-path="url(#clip0_3609_3988)">
<path d="M3.14798 9.95205C2.35796 8.5745 1.9765 7.44965 1.74649 6.30943C1.40631 4.62306 2.1848 2.97575 3.47444 1.92464C4.0195 1.4804 4.64432 1.63218 4.96663 2.21041L5.69428 3.51584C6.27103 4.55055 6.55941 5.06791 6.50221 5.61641C6.44501 6.16491 6.0561 6.61163 5.27827 7.50509L3.14798 9.95205ZM3.14798 9.95205C4.74705 12.7403 7.25649 15.2511 10.048 16.8521M10.048 16.8521C11.4255 17.6421 12.5504 18.0235 13.6906 18.2536C15.377 18.5937 17.0243 17.8152 18.0754 16.5256C18.5196 15.9805 18.3679 15.3557 17.7896 15.0334L16.4842 14.3058C15.4495 13.729 14.9321 13.4406 14.3836 13.4978C13.8351 13.555 13.3884 13.9439 12.495 14.7218L10.048 16.8521Z" stroke="currentColor" stroke-width="1.5" stroke-linejoin="round"/>
<path d="M11.6666 5.69329C12.8527 6.19695 13.8031 7.14739 14.3068 8.33341M12.2116 1.66675C15.1593 2.51738 17.4826 4.84052 18.3333 7.7881" stroke="currentColor" stroke-width="1.5" stroke-linecap="round"/>
</g>
<defs>
<clipPath id="clip0_3609_3988">
<rect width="20" height="20" fill="white"/>
</clipPath>
</defs>
</svg>
