<svg width="32" height="32" viewBox="0 0 32 32" fill="none" xmlns="http://www.w3.org/2000/svg">
<path d="M15.9973 2.66699C11.9869 2.66699 9.38658 5.35898 6.31129 6.3402C5.06086 6.73916 4.43564 6.93865 4.18261 7.21986C3.92958 7.50107 3.85549 7.91199 3.7073 8.73384C2.12159 17.5283 5.58754 25.659 13.8534 28.8236C14.7415 29.1637 15.1856 29.3337 16.0017 29.3337C16.8177 29.3336 17.2618 29.1636 18.1498 28.8236C26.4151 25.6589 29.8778 17.5283 28.2916 8.73383C28.1434 7.91184 28.0693 7.50085 27.8162 7.21964C27.5631 6.93843 26.9379 6.73906 25.6876 6.34031C22.6111 5.35919 20.0078 2.66699 15.9973 2.66699Z" stroke="currentColor" stroke-width="2" stroke-linecap="round" stroke-linejoin="round"/>
<path d="M16 9.3335L16 12.0002" stroke="currentColor" stroke-width="2" stroke-linecap="round"/>
</svg>
