<svg width="24" height="24" viewBox="0 0 24 24" fill="none" xmlns="http://www.w3.org/2000/svg">
<path d="M11.0257 2.99982C6.5113 3.49878 3 7.32553 3 11.9723C3 16.958 7.04239 20.9998 12.0289 20.9998C16.668 20.9998 20.4898 17.5017 21 12.9998" stroke="currentColor" stroke-width="1.5" stroke-linecap="round"/>
<path d="M20.9995 6.02511L20 6.02258C16.2634 6.01313 14.3951 6.0084 13.0817 6.95247C12.6452 7.2662 12.2622 7.64826 11.9474 8.08394C11 9.39497 11 11.2633 11 14.9998M20.9995 6.02511C21.0062 5.86248 20.9481 5.69887 20.8251 5.55315C20.0599 4.64668 18.0711 2.99982 18.0711 2.99982M20.9995 6.02511C20.9934 6.17094 20.9352 6.31598 20.8249 6.44663C20.0596 7.35292 18.0711 8.99982 18.0711 8.99982" stroke="currentColor" stroke-width="1.5" stroke-linecap="round" stroke-linejoin="round"/>
</svg>
