<svg width="40" height="40" viewBox="0 0 40 40" fill="none" xmlns="http://www.w3.org/2000/svg">
<path d="M18.3762 4.99976C10.8522 5.83137 5 12.2093 5 19.9538C5 28.2635 11.7373 34.9998 20.0482 34.9998C27.7799 34.9998 34.1497 29.1696 35 21.6664" stroke="#363636" stroke-width="2" stroke-linecap="round"/>
<path d="M34.9993 10.0419L33.3334 10.0377C27.1059 10.0219 23.9921 10.0141 21.803 11.5875C21.0756 12.1104 20.4372 12.7472 19.9125 13.4733C18.3335 15.6583 18.3335 18.7721 18.3335 24.9998M34.9993 10.0419C35.0105 9.77086 34.9136 9.49818 34.7086 9.25531C33.4334 7.74453 30.1187 4.99976 30.1187 4.99976M34.9993 10.0419C34.9892 10.285 34.8922 10.5267 34.7084 10.7444C33.4329 12.2549 30.1187 14.9998 30.1187 14.9998" stroke="#363636" stroke-width="2" stroke-linecap="round" stroke-linejoin="round"/>
</svg>
