<svg width="40" height="40" viewBox="0 0 40 40" fill="none" xmlns="http://www.w3.org/2000/svg">
<path d="M35.0873 19.1667L35.5511 16.3997C35.8544 14.5905 36.0061 13.6859 35.5205 13.0929C35.0349 12.5 34.1423 12.5 32.3573 12.5H7.64275C5.85771 12.5 4.96519 12.5 4.47958 13.0929C3.99396 13.6859 4.14561 14.5905 4.4489 16.3997L6.45484 28.3657C7.11971 32.3318 7.45214 34.3149 8.80943 35.4908C10.1667 36.6667 12.1233 36.6667 16.0364 36.6667H20" stroke="currentColor" stroke-width="2" stroke-linecap="round"/>
<path d="M23.3334 30H36.6667M30 36.6667L30 23.3333" stroke="currentColor" stroke-width="2" stroke-linecap="round"/>
<path d="M29.1667 12.5C29.1667 7.43738 25.0626 3.33333 20 3.33333C14.9374 3.33333 10.8334 7.43738 10.8334 12.5" stroke="currentColor" stroke-width="2"/>
</svg>
