<svg width="20" height="20" viewBox="0 0 20 20" fill="none" xmlns="http://www.w3.org/2000/svg">
<g clip-path="url(#clip0_1096_383)">
<path d="M3.22757 14.1829L2.2246 8.19985C2.07296 7.29524 1.99713 6.84293 2.23994 6.54647C2.48275 6.25 2.92901 6.25 3.82153 6.25H16.1788C17.0713 6.25 17.5176 6.25 17.7604 6.54647C18.0032 6.84293 17.9274 7.29524 17.7757 8.19985L16.7727 14.1829C16.4403 16.1659 16.2741 17.1574 15.5955 17.7454C14.9168 18.3333 13.9385 18.3333 11.982 18.3333H8.01834C6.06179 18.3333 5.08352 18.3333 4.40487 17.7454C3.72622 17.1574 3.56001 16.1659 3.22757 14.1829Z" stroke="currentColor" stroke-width="2"/>
<path d="M14.5837 6.25C14.5837 3.71869 12.5316 1.66666 10.0003 1.66666C7.46902 1.66666 5.41699 3.71869 5.41699 6.25" stroke="currentColor" stroke-width="2"/>
</g>
<defs>
<clipPath id="clip0_1096_383">
<rect width="20" height="20" fill="white"/>
</clipPath>
</defs>
</svg>
