<svg width="80" height="80" viewBox="0 0 80 80" fill="none" xmlns="http://www.w3.org/2000/svg">
<circle cx="40" cy="40" r="40" fill="white"/>
<circle cx="40" cy="40" r="36" fill="#12B76A"/>
<path d="M38.6663 53.3333H36.8288C33.6983 53.3333 32.133 53.3333 31.0472 52.3926C29.9614 51.4519 29.6954 49.8655 29.1635 46.6926L27.5588 37.1198C27.3161 35.6724 27.1948 34.9487 27.5833 34.4743C27.9718 34 28.6858 34 30.1139 34H49.8855C51.3135 34 52.0275 34 52.416 34.4743C52.8045 34.9487 52.6832 35.6724 52.4406 37.1198L51.7342 41.3333" stroke="white" stroke-width="2" stroke-linecap="round"/>
<path d="M42 50.6666C42 50.6666 43.3333 50.6666 44.6667 53.3333C44.6667 53.3333 48.902 46.6666 52.6667 45.3333" stroke="white" stroke-width="2" stroke-linecap="round" stroke-linejoin="round"/>
<path d="M47.3327 34C47.3327 29.9499 44.0494 26.6667 39.9993 26.6667C35.9493 26.6667 32.666 29.9499 32.666 34" stroke="white" stroke-width="2"/>
</svg>
