<svg width="80" height="80" viewBox="0 0 80 80" fill="none" xmlns="http://www.w3.org/2000/svg">
<circle cx="40" cy="40" r="40" fill="white"/>
<circle cx="40" cy="40" r="36" fill="#DC3134"/>
<path d="M51.9577 40L52.4406 37.1198C52.6832 35.6724 52.8045 34.9487 52.416 34.4743C52.0275 34 51.3135 34 49.8855 34H30.1139C28.6858 34 27.9718 34 27.5833 34.4743C27.1948 34.9487 27.3161 35.6724 27.5588 37.1198L29.1635 46.6926C29.6954 49.8655 29.9614 51.4519 31.0472 52.3926C32.133 53.3333 33.6983 53.3333 36.8288 53.3333H39.333" stroke="white" stroke-width="2" stroke-linecap="round"/>
<path d="M43.333 44L47.9997 48.6667M47.9997 48.6667L52.6663 53.3333M47.9997 48.6667L43.333 53.3333M47.9997 48.6667L52.6663 44" stroke="white" stroke-width="2" stroke-linecap="round"/>
<path d="M47.3327 34C47.3327 29.9499 44.0494 26.6667 39.9993 26.6667C35.9493 26.6667 32.666 29.9499 32.666 34" stroke="white" stroke-width="2"/>
</svg>
