<svg width="32" height="32" viewBox="0 0 32 32" fill="none" xmlns="http://www.w3.org/2000/svg">
<path d="M3.33333 16.0002C3.33333 10.029 3.33333 7.04348 5.18832 5.18849C7.04331 3.3335 10.0289 3.3335 16 3.3335C21.9711 3.3335 24.9567 3.3335 26.8117 5.18849C28.6667 7.04348 28.6667 10.029 28.6667 16.0002C28.6667 21.9713 28.6667 24.9568 26.8117 26.8118C24.9567 28.6668 21.9711 28.6668 16 28.6668C10.0289 28.6668 7.04331 28.6668 5.18832 26.8118C3.33333 24.9568 3.33333 21.9713 3.33333 16.0002Z" stroke="currentColor" stroke-width="2" stroke-linejoin="round"/>
<path d="M22 16C22 19.3137 19.3137 22 16 22C12.6863 22 10 19.3137 10 16C10 12.6863 12.6863 10 16 10C19.3137 10 22 12.6863 22 16Z" stroke="currentColor" stroke-width="2"/>
<path d="M23.3438 8.66675L23.3318 8.66675" stroke="currentColor" stroke-width="2" stroke-linecap="round" stroke-linejoin="round"/>
</svg>
