<svg width="32" height="32" viewBox="0 0 32 32" fill="none" xmlns="http://www.w3.org/2000/svg">
<path d="M15.9806 20.5444L20.3024 25.4581C21.9036 27.2786 22.7043 28.1889 23.5423 27.9672C24.3803 27.7456 24.6677 26.5477 25.2424 24.1518L28.4305 10.8612C29.3157 7.1711 29.7583 5.32605 28.7745 4.416C27.7907 3.50595 26.0854 4.183 22.6748 5.53709L6.8517 11.8193C4.12392 12.9023 2.76003 13.4438 2.67344 14.3745C2.66458 14.4696 2.66444 14.5655 2.673 14.6607C2.75674 15.5916 4.11897 16.1377 6.84342 17.2298C8.07786 17.7246 8.69509 17.972 9.13763 18.4458C9.18738 18.4991 9.23522 18.5543 9.28106 18.6112C9.6888 19.1178 9.8628 19.7827 10.2108 21.1126L10.8621 23.6013C11.2007 24.8954 11.37 25.5424 11.8135 25.6306C12.2569 25.7188 12.643 25.1823 13.4152 24.1093L15.9806 20.5444ZM15.9806 20.5444L15.5569 20.1028C15.0746 19.6002 14.8335 19.3489 14.8335 19.0366C14.8335 18.7243 15.0746 18.473 15.5569 17.9704L20.3208 13.0055" stroke="currentColor" stroke-width="2" stroke-linecap="round" stroke-linejoin="round"/>
</svg>
