<svg width="32" height="32" viewBox="0 0 32 32" fill="none" xmlns="http://www.w3.org/2000/svg">
<path d="M16 29.3332C23.3638 29.3332 29.3333 23.3636 29.3333 15.9998C29.3333 8.63604 23.3638 2.6665 16 2.6665C8.63619 2.6665 2.66666 8.63604 2.66666 15.9998C2.66666 17.8383 3.03876 19.5899 3.71175 21.1834C4.0837 22.064 4.26967 22.5044 4.29269 22.8371C4.31572 23.1699 4.21777 23.536 4.02188 24.2681L2.66666 29.3332L7.73169 27.9779C8.46383 27.782 8.82991 27.6841 9.16269 27.7071C9.49546 27.7302 9.93579 27.9161 10.8165 28.2881C12.4099 28.9611 14.1615 29.3332 16 29.3332Z" stroke="currentColor" stroke-width="2" stroke-linejoin="round"/>
<path d="M11.4509 16.503L12.6121 15.0608C13.1015 14.4529 13.7066 13.887 13.7539 13.0776C13.7659 12.8732 13.6221 11.9553 13.3344 10.1197C13.2213 9.39834 12.5478 9.33325 11.9644 9.33325C11.2042 9.33325 10.8241 9.33325 10.4466 9.50567C9.9695 9.72359 9.4797 10.3363 9.37221 10.8497C9.28717 11.2559 9.35036 11.5357 9.47676 12.0955C10.0136 14.473 11.2731 16.821 13.226 18.7739C15.1788 20.7268 17.5269 21.9863 19.9044 22.5231C20.4641 22.6495 20.744 22.7127 21.1502 22.6277C21.6636 22.5202 22.2763 22.0304 22.4942 21.5533C22.6666 21.1758 22.6666 20.7957 22.6666 20.0355C22.6666 19.4521 22.6016 18.7786 21.8802 18.6655C20.0446 18.3778 19.1267 18.234 18.9223 18.246C18.1129 18.2933 17.547 18.8984 16.9391 19.3878L15.4969 20.549" stroke="currentColor" stroke-width="2"/>
</svg>
