<svg width="30" height="28" viewBox="0 0 30 28" fill="none" xmlns="http://www.w3.org/2000/svg">
<path d="M14.1093 1.24536C14.4804 0.518108 15.5196 0.518109 15.8907 1.24536L19.5651 8.4453C19.7104 8.73002 19.983 8.92812 20.2987 8.97832L28.2817 10.248C29.0881 10.3762 29.4092 11.3645 28.8322 11.9422L23.1201 17.6616C22.8942 17.8878 22.7901 18.2083 22.8399 18.5241L24.0993 26.5087C24.2265 27.3152 23.3858 27.926 22.6581 27.5558L15.4534 23.8907C15.1685 23.7457 14.8315 23.7457 14.5466 23.8907L7.34194 27.5558C6.61421 27.926 5.77352 27.3152 5.90073 26.5087L7.16012 18.5241C7.20992 18.2083 7.10578 17.8878 6.87989 17.6616L1.16779 11.9422C0.590817 11.3645 0.911932 10.3762 1.71828 10.248L9.70127 8.97832C10.017 8.92812 10.2896 8.73002 10.4349 8.4453L14.1093 1.24536Z" fill="#FCB108"/>
</svg>
