<svg width="25" height="24" viewBox="0 0 25 24" fill="none" xmlns="http://www.w3.org/2000/svg">
<path d="M6.5 12L6.5 17.6841C6.5 19.4952 6.5 20.4008 7.08579 20.9635C8.39989 22.2257 16.3558 22.4604 17.9142 20.9635C18.5 20.4008 18.5 19.4952 18.5 17.6841V12" stroke="#363636" stroke-width="2" stroke-linecap="round"/>
<path d="M6.60324 5.47153L6.82354 6.44697L6.82354 6.44696L6.60324 5.47153ZM6.33714 5.54068L6.62896 6.49715L6.62896 6.49715L6.33714 5.54068ZM18.3968 5.47153L18.6171 4.4961L18.3968 5.47153ZM18.6629 5.54068L18.371 6.49715L18.371 6.49715L18.6629 5.54068ZM3.73895 8.08963L4.65615 8.48804L3.73895 8.08963ZM21.2611 8.08963L20.3438 8.48804L21.2611 8.08963ZM7.3809 4.85461L6.49149 4.3975L6.49149 4.3975L7.3809 4.85461ZM8.42444 3.07791L7.58089 2.54086L7.58089 2.54086L8.42444 3.07791ZM17.6191 4.85461L18.5085 4.3975L18.5085 4.3975L17.6191 4.85461ZM16.5756 3.07791L15.732 3.61497L15.732 3.61497L16.5756 3.07791ZM2.81692 12.4884L3.63655 11.9155L2.81692 12.4884ZM5.86317 14.9499C6.38781 15.1225 6.95299 14.8371 7.12554 14.3124C7.29808 13.7878 7.01266 13.2226 6.48802 13.0501L5.86317 14.9499ZM22.1831 12.4884L21.3635 11.9155V11.9155L22.1831 12.4884ZM18.512 13.0501C17.9873 13.2226 17.7019 13.7878 17.8745 14.3124C18.047 14.8371 18.6122 15.1225 19.1368 14.9499L18.512 13.0501ZM8.62714 2.90217L8.22343 1.98728L8.22343 1.98728L8.62714 2.90217ZM16.3729 2.90217L15.9692 3.81706L15.9692 3.81706L16.3729 2.90217ZM6.38293 4.4961C6.26523 4.52269 6.15634 4.55033 6.04532 4.5842L6.62896 6.49715C6.6798 6.48164 6.73859 6.46615 6.82354 6.44697L6.38293 4.4961ZM18.1765 6.44696C18.2614 6.46615 18.3202 6.48164 18.371 6.49715L18.9547 4.5842C18.8437 4.55033 18.7348 4.52269 18.6171 4.4961L18.1765 6.44696ZM4.65615 8.48804C5.1007 7.46461 5.70549 6.7789 6.62896 6.49715L6.04532 4.5842C4.36347 5.09733 3.40209 6.35514 2.82174 7.69123L4.65615 8.48804ZM22.1783 7.69123C21.5979 6.35514 20.6365 5.09733 18.9547 4.5842L18.371 6.49715C19.2945 6.7789 19.8993 7.46461 20.3438 8.48804L22.1783 7.69123ZM8.27031 5.31172C8.58063 4.70793 9.07502 3.91807 9.26799 3.61497L7.58089 2.54086C7.38884 2.84252 6.8487 3.70248 6.49149 4.3975L8.27031 5.31172ZM18.5085 4.3975C18.1513 3.70248 17.6112 2.84252 17.4191 2.54086L15.732 3.61497C15.925 3.91807 16.4194 4.70793 16.7297 5.31172L18.5085 4.3975ZM1.99728 13.0613C2.52082 13.8103 3.35345 14.1859 4.01967 14.4156C4.36825 14.5358 4.72325 14.6323 5.03548 14.7158C5.36144 14.8029 5.6296 14.8731 5.86317 14.9499L6.48802 13.0501C6.18726 12.9511 5.85178 12.8638 5.55201 12.7836C5.23851 12.6998 4.94568 12.6193 4.67154 12.5248C4.09232 12.3251 3.77995 12.1207 3.63655 11.9155L1.99728 13.0613ZM21.3635 11.9155C21.22 12.1207 20.9077 12.3251 20.3285 12.5248C20.0543 12.6193 19.7615 12.6998 19.448 12.7836C19.1482 12.8638 18.8127 12.9511 18.512 13.0501L19.1368 14.9499C19.3704 14.8731 19.6386 14.8029 19.9645 14.7158C20.2768 14.6323 20.6318 14.5358 20.9803 14.4156C21.6466 14.1859 22.4792 13.8103 23.0027 13.0613L21.3635 11.9155ZM2.82174 7.69123C2.69782 7.97651 2.53646 8.2851 2.33928 8.68318C2.15294 9.05938 1.94706 9.49229 1.7882 9.94132C1.48262 10.8051 1.25558 12.0001 1.99728 13.0613L3.63655 11.9155C3.46854 11.6752 3.42806 11.3027 3.67369 10.6084C3.79044 10.2784 3.95133 9.93459 4.13147 9.57091C4.30077 9.22911 4.50562 8.83461 4.65615 8.48804L2.82174 7.69123ZM20.3438 8.48804C20.4944 8.83461 20.6992 9.22911 20.8685 9.57091C21.0487 9.93459 21.2096 10.2784 21.3263 10.6084C21.5719 11.3027 21.5315 11.6752 21.3635 11.9155L23.0027 13.0613C23.7444 12.0001 23.5174 10.8051 23.2118 9.94132C23.0529 9.49229 22.8471 9.05938 22.6607 8.68318C22.4635 8.2851 22.3022 7.97651 22.1783 7.69123L20.3438 8.48804ZM9.03085 3.81706C9.47754 3.61994 11.0183 3 12.5 3V1C10.5791 1 8.71711 1.76944 8.22343 1.98728L9.03085 3.81706ZM12.5 3C13.9817 3 15.5225 3.61994 15.9692 3.81706L16.7766 1.98728C16.2829 1.76944 14.4209 1 12.5 1V3ZM17.4191 2.54086C17.2688 2.30477 17.05 2.10794 16.7766 1.98728L15.9692 3.81706C15.864 3.77065 15.7836 3.69592 15.732 3.61497L17.4191 2.54086ZM9.26799 3.61497C9.21645 3.69592 9.13602 3.77065 9.03085 3.81706L8.22343 1.98728C7.95 2.10794 7.7312 2.30477 7.58089 2.54086L9.26799 3.61497ZM18.6171 4.4961C18.5921 4.49046 18.5429 4.46449 18.5085 4.3975L16.7297 5.31172C17.0116 5.86031 17.5263 6.30013 18.1765 6.44697L18.6171 4.4961ZM6.82354 6.44696C7.47366 6.30013 7.98837 5.86031 8.27031 5.31172L6.49149 4.3975C6.45706 4.46449 6.40793 4.49046 6.38293 4.4961L6.82354 6.44696Z" fill="#363636"/>
<path d="M7 5.5L11.2335 8.79263C11.8399 9.26421 12.143 9.5 12.5 9.5C12.857 9.5 13.1601 9.26421 13.7665 8.79263L18 5.5" stroke="#363636" stroke-width="2" stroke-linecap="round" stroke-linejoin="round"/>
<path d="M10 3L11.5 9M15 3L13.5 9" stroke="#363636" stroke-width="2" stroke-linecap="round" stroke-linejoin="round"/>
</svg>
