<svg width="15" height="16" viewBox="0 0 15 16" fill="none" xmlns="http://www.w3.org/2000/svg">
<path d="M15.0002 8.61535C15.0002 12.6938 11.694 16 7.61556 16C3.53716 16 0.230957 12.6938 0.230957 8.61535C0.230957 4.53694 3.53716 1.23074 7.61556 1.23074C11.694 1.23074 15.0002 4.53694 15.0002 8.61535Z" fill="#1E86E2"/>
<path d="M14.3847 1.84615C14.3847 0.82655 13.5581 0 12.5385 0C11.5189 0 10.6924 0.82655 10.6924 1.84615C10.6924 2.86575 11.5189 3.6923 12.5385 3.6923C13.5581 3.6923 14.3847 2.86575 14.3847 1.84615Z" fill="#1E86E2"/>
<path d="M7.61594 3.69229C6.80634 3.69229 6.00923 3.89196 5.29522 4.2736C4.58122 4.65525 3.97235 5.20709 3.52256 5.88025C3.07277 6.55341 2.79593 7.32711 2.71658 8.13282C2.63722 8.93852 2.7578 9.75136 3.06762 10.4993C3.37744 11.2473 3.86695 11.9073 4.49278 12.4209C5.11861 12.9346 5.86145 13.2859 6.6555 13.4438C7.44955 13.6018 8.27029 13.5615 9.04503 13.3264C9.81978 13.0914 10.5246 12.669 11.0971 12.0965L7.61594 8.61536V3.69229Z" fill="#A4D5FF"/>
</svg>
