<svg width="17" height="14" viewBox="0 0 17 14" fill="none" xmlns="http://www.w3.org/2000/svg">
<path d="M5.76561 3.23733C5.84486 3.23733 5.88449 3.50809 5.88449 4.04961C5.88449 4.55189 5.84486 4.80303 5.76561 4.80303H4.82647C4.74722 5.68201 4.43417 6.36872 3.88733 6.86315C3.34049 7.36543 2.63118 7.61657 1.7594 7.61657H0.130766L0 6.05087H1.85451C2.32209 6.05087 2.68665 5.93708 2.94819 5.70948C3.20972 5.48974 3.34049 5.18758 3.34049 4.80303H2.50834C1.65241 4.80303 1.03821 4.62645 0.66572 4.27328C0.301159 3.92012 0.118879 3.35898 0.118879 2.58987C0.118879 2.08759 0.217944 1.64025 0.416075 1.24785C0.614206 0.855441 0.891589 0.549366 1.24822 0.329619C1.61279 0.109873 2.03282 0 2.50834 0C3.23746 0 3.80808 0.235443 4.22019 0.706328C4.64022 1.17721 4.85024 1.8286 4.85024 2.6605V3.23733H5.76561ZM1.61675 2.53101C1.61675 2.78215 1.68411 2.96658 1.81884 3.0843C1.9615 3.19417 2.21114 3.24911 2.56778 3.24911H3.34049V2.63696C3.34049 2.26025 3.2652 1.97379 3.11462 1.77759C2.96404 1.58139 2.74609 1.48329 2.46079 1.48329C2.19133 1.48329 1.98131 1.58139 1.83073 1.77759C1.68808 1.96595 1.61675 2.21708 1.61675 2.53101Z" fill="currentColor"/>
<path d="M7.54841 3.23733C7.62767 3.23733 7.66729 3.50809 7.66729 4.04961C7.66729 4.37138 7.6554 4.57936 7.63163 4.67353C7.60785 4.75986 7.58012 4.80303 7.54841 4.80303H5.76561C5.68636 4.80303 5.64636 4.55189 5.64636 4.04961C5.64636 3.50809 5.68636 3.23733 5.76561 3.23733H7.54841Z" fill="currentColor"/>
<path d="M9.33624 3.23733C9.41549 3.23733 9.45511 3.50809 9.45511 4.04961C9.45511 4.37138 9.44323 4.57936 9.41945 4.67353C9.39567 4.75986 9.36794 4.80303 9.33624 4.80303H7.55306C7.47381 4.80303 7.43418 4.55189 7.43418 4.04961C7.43418 3.50809 7.47381 3.23733 7.55306 3.23733H9.33624Z" fill="currentColor"/>
<path d="M11.1241 3.23733C11.2033 3.23733 11.2429 3.50809 11.2429 4.04961C11.2429 4.37138 11.231 4.57936 11.2073 4.67353C11.1835 4.75986 11.1558 4.80303 11.1241 4.80303H9.34088C9.26163 4.80303 9.222 4.55189 9.222 4.04961C9.222 3.50809 9.26163 3.23733 9.34088 3.23733H11.1241Z" fill="currentColor"/>
<path d="M12.9119 3.23733C12.9911 3.23733 13.0308 3.50809 13.0308 4.04961C13.0308 4.37138 13.0189 4.57936 12.9951 4.67353C12.9713 4.75986 12.9436 4.80303 12.9119 4.80303H11.1287C11.0494 4.80303 11.0098 4.55189 11.0098 4.04961C11.0098 3.50809 11.0494 3.23733 11.1287 3.23733H12.9119Z" fill="currentColor"/>
<path d="M17 2.70759C17 3.35898 16.8019 3.87303 16.4056 4.24974C16.0173 4.6186 15.4902 4.80303 14.8245 4.80303H12.9165C12.8373 4.80303 12.7976 4.55189 12.7976 4.04961C12.7976 3.50809 12.8373 3.23733 12.9165 3.23733H14.8245C15.0227 3.23733 15.1812 3.18632 15.3 3.0843C15.4268 2.97442 15.4902 2.82531 15.4902 2.63696V0H17V2.70759ZM14.3133 0V1.34202H9.47499V0H14.3133Z" fill="currentColor"/>
<path d="M3.3286 13.8705C2.29832 13.8705 1.50183 13.5762 0.93914 12.9876C0.384374 12.4068 0.106991 11.5906 0.106991 10.539V8.84966H1.61675V10.5037C1.61675 11.1001 1.75544 11.5475 2.03282 11.8457C2.31021 12.1518 2.74213 12.3048 3.3286 12.3048H3.80411C4.37473 12.3048 4.82251 12.1557 5.14744 11.8575C5.47237 11.5592 5.63484 11.1472 5.63484 10.6214V6.64239H7.1446V10.5037C7.1446 11.21 7.00591 11.8143 6.72852 12.3166C6.45114 12.8267 6.05884 13.2113 5.55163 13.4703C5.05234 13.7371 4.46983 13.8705 3.80411 13.8705H3.3286ZM2.55589 10.1917V8.84966H4.17264V10.1917H2.55589Z" fill="currentColor"/>
<path d="M11.3004 12.4343C11.3401 12.4343 11.3678 12.4853 11.3836 12.5873C11.4074 12.6894 11.4193 12.9091 11.4193 13.2466C11.4193 13.5605 11.4074 13.7646 11.3836 13.8587C11.3678 13.9529 11.3401 14 11.3004 14H10.8725C10.2067 14 9.69953 13.8116 9.35082 13.4349C9.01003 13.0504 8.83964 12.5049 8.83964 11.7986V6.64239H10.3613V11.6927C10.3613 11.9438 10.4088 12.1322 10.5039 12.2577C10.607 12.3754 10.7655 12.4343 10.9795 12.4343H11.3004Z" fill="currentColor"/>
<path d="M11.6119 12.4343C11.8338 12.4343 11.9884 12.3911 12.0755 12.3048C12.1707 12.2185 12.2182 12.0772 12.2182 11.881V11.5514C12.2182 10.7901 12.4361 10.1898 12.872 9.75026C13.3158 9.30292 13.9142 9.07925 14.6671 9.07925C15.42 9.07925 15.9946 9.29507 16.3908 9.72672C16.795 10.1505 16.9971 10.7627 16.9971 11.5632C16.9971 12.3323 16.7871 12.9327 16.3671 13.3643C15.947 13.7881 15.3606 14 14.6077 14C14.2114 14 13.8825 13.9529 13.621 13.8587C13.3594 13.7567 13.1653 13.6154 13.0385 13.4349C12.8879 13.6311 12.6977 13.7763 12.4678 13.8705C12.2459 13.9568 11.9606 14 11.6119 14H11.3028C11.2236 14 11.184 13.7489 11.184 13.2466C11.184 12.7051 11.2236 12.4343 11.3028 12.4343H11.6119ZM15.4993 11.5632C15.4993 10.9039 15.2021 10.5743 14.6077 10.5743C14.0133 10.5743 13.7161 10.9039 13.7161 11.5632C13.7161 11.8457 13.7874 12.0654 13.9301 12.2224C14.0806 12.3715 14.3065 12.4461 14.6077 12.4461C14.9088 12.4461 15.1307 12.3754 15.2734 12.2342C15.424 12.0851 15.4993 11.8614 15.4993 11.5632Z" fill="currentColor"/>
</svg>
