<svg width="32" height="32" viewBox="0 0 32 32" fill="none" xmlns="http://www.w3.org/2000/svg">
<path d="M21.334 18.6665C21.334 19.7711 22.2294 20.6665 23.334 20.6665C24.4386 20.6665 25.334 19.7711 25.334 18.6665C25.334 17.5619 24.4386 16.6665 23.334 16.6665C22.2294 16.6665 21.334 17.5619 21.334 18.6665Z" stroke="currentColor" stroke-width="2"/>
<path d="M13.3337 9.33333H21.3337C25.1049 9.33333 26.9905 9.33333 28.1621 10.5049C29.3337 11.6765 29.3337 13.5621 29.3337 17.3333V20C29.3337 23.7712 29.3337 25.6569 28.1621 26.8284C26.9905 28 25.1049 28 21.3337 28H13.3337C8.30534 28 5.79119 28 4.22909 26.4379C2.66699 24.8758 2.66699 22.3616 2.66699 17.3333V14.6667C2.66699 9.63835 2.66699 7.12419 4.22909 5.5621C5.79119 4 8.30534 4 13.3337 4H18.667C19.907 4 20.5269 4 21.0356 4.1363C22.416 4.50617 23.4942 5.58436 23.864 6.96472C24.0003 7.47339 24.0003 8.09337 24.0003 9.33333" stroke="currentColor" stroke-width="2" stroke-linecap="round"/>
</svg>
