<svg width="104" height="104" viewBox="0 0 104 104" fill="none" xmlns="http://www.w3.org/2000/svg">
<rect width="104" height="104" rx="52" fill="#FCB108"/>
<path d="M68.078 53.9739C67.2533 57.1077 63.3555 59.3221 55.56 63.7508C48.0241 68.0322 44.2561 70.1728 41.2196 69.3124C39.9642 68.9566 38.8203 68.281 37.8979 67.3502C35.6666 65.0991 35.6666 60.7327 35.6666 52C35.6666 43.2673 35.6666 38.9009 37.8979 36.6497C38.8203 35.719 39.9642 35.0434 41.2196 34.6876C44.2561 33.8272 48.0241 35.9678 55.56 40.2492C63.3555 44.6779 67.2533 46.8923 68.078 50.0261C68.4184 51.3196 68.4184 52.6804 68.078 53.9739Z" fill="white"/>
</svg>
