<svg width="1920" height="302" viewBox="0 0 1920 302" fill="none" xmlns="http://www.w3.org/2000/svg">
<rect width="1920" height="302" fill="#FCB108"/>
<mask id="mask0_1096_1079" style="mask-type:alpha" maskUnits="userSpaceOnUse" x="0" y="0" width="1920" height="302">
<rect width="1920" height="302" fill="#FCB108"/>
</mask>
<g mask="url(#mask0_1096_1079)">
<g opacity="0.2">
<path d="M1288.41 161.231L1242.57 134.153L1034.69 145.763L1033.79 145.463L826.536 78.5681L748.946 0.229767L588.061 -67.5636L591.964 -76.7447L754.65 -8.18619L831.94 69.8195L1035.99 135.684L1245.08 124.008L1289.31 150.154L1670.46 -23.8143L1674.16 -14.5335L1288.41 161.231Z" fill="url(#paint0_radial_1096_1079)"/>
<path d="M656.645 492.214L653.476 491.15L710.184 321.5L827.737 73.4786L905.36 -109.943L943.088 -276L946.357 -275.268L908.529 -108.945L830.772 74.8424L713.286 322.731L656.645 492.214Z" fill="url(#paint1_radial_1096_1079)"/>
<path d="M885.979 554.519L882.81 553.554L930.345 394.715L1033.79 140.108L1107.14 -72.7196L1147.14 -245.53L1150.37 -244.764L1110.34 -71.7882L1036.92 141.272L933.481 395.813L885.979 554.519Z" fill="url(#paint2_radial_1096_1079)"/>
<path d="M1242.67 596L1168.49 525.379L1168.89 524.348L1242.14 331.712V129.596L1107.74 -70.6572L906.895 -107.614L815.427 -93.8094L733.401 -78.7738L616.282 -108.812L617.116 -112.038L733.501 -82.1668L814.86 -97.0694L906.928 -111.007L907.228 -110.941L1109.71 -73.6843L1245.48 128.598L1245.38 332.577L1172.39 524.481L1244.98 593.605L1242.67 596Z" fill="url(#paint3_radial_1096_1079)"/>
<path d="M931.813 396.911L710.918 323.463L624.188 271.902L568.58 229.756L191.872 -43.3851L194.707 -45.1149L571.249 227.76L626.056 269.141L712.452 320.502L932.046 393.485L1133.39 352.004L1243.51 330.382L1328.94 296.951L1329.57 297.217L1669.65 505.451L1668.28 508.478L1328.84 300.543L1244.44 333.542L1134.06 355.264L931.813 396.911Z" fill="url(#paint4_radial_1096_1079)"/>
<path d="M725.061 515.366L721.826 514.535L767.359 340.627L882.877 91.3084L962.202 -99.4977L988.854 -226.07L992.124 -225.404L965.371 -98.4998L885.946 92.639L770.495 341.725L725.061 515.366Z" fill="url(#paint5_radial_1096_1079)"/>
<path d="M816.228 523.184L813.026 522.252L856.424 370.199L962.202 116.989L1037.19 -85.6263L1064.71 -216.09L1067.98 -215.425L1040.39 -84.6949L965.304 118.186L859.593 371.297L816.228 523.184Z" fill="url(#paint6_radial_1096_1079)"/>
<path d="M946.857 502.626L980.215 384.47L999.295 334.008L963.069 318.44L890.216 293.89L803.519 267.046L728.431 239.303L679.195 209.465L632.961 185.082H615.314L609.577 155.177L395.363 -11.9642L397.932 -14.0931L612.679 153.713L618.083 181.755H633.795L634.162 181.955L680.862 206.571L729.865 236.342L804.586 263.919L891.25 290.73L964.27 315.346L1003.53 332.211L983.35 385.501L951.494 498.468L1000.96 490.052L1093.66 453.295L1157.38 475.582H1213.72L1248.08 378.349L1291.81 364.578L1292.44 364.91L1385.84 415.373L1384.24 418.3L1291.48 368.17L1250.68 381.01L1216.09 478.908L1156.54 478.842L1093.76 456.854L1001.7 493.312L946.857 502.626Z" fill="url(#paint7_radial_1096_1079)"/>
<path d="M1198.77 239.735V183.019L1012.04 199.385L1011.74 199.286L938.417 178.728L858.226 148.757L803.452 127.633L722.56 60.6717L583.825 4.22153L585.092 1.1279L724.294 57.7776L724.494 57.944L805.354 124.906L859.393 145.663L939.452 175.568L1012.34 195.992L1202.11 179.393V235.777L1243.54 228.359L1321 206.504L1415.3 149.289L1417.03 152.116L1322.1 209.664L1244.27 231.586L1198.77 239.735Z" fill="url(#paint8_radial_1096_1079)"/>
<path d="M998.762 335.371L1036.32 239.436H995.926V236.109H1202.14V293.458L998.762 335.371ZM1039.89 239.403L1004.1 330.847L1198.81 290.697V239.369H1039.89V239.403Z" fill="url(#paint9_radial_1096_1079)"/>
<path d="M1092.06 455.39L1075.42 365.609L1064.64 319.637L1064.78 319.205L1092.03 237.473V136.881L1092.43 136.415L1177.96 30.6004L1258.69 25.4444L1362.79 -68.3952L1365.03 -65.9336L1260.09 28.7043L1179.63 33.8271L1095.37 138.045L1095.3 238.272L1068.08 319.803L1078.65 364.91L1095.37 454.792L1092.06 455.39Z" fill="url(#paint10_radial_1096_1079)"/>
<path d="M1681.73 435.894L1362.56 243.461L1330.14 139.176L1307.99 85.6202L1260.49 30.8998L1245.48 129.33L1242.17 128.831L1258.28 23.2489L1310.96 84.09L1333.27 138.045L1365.26 240.9L1682.89 432.767L1681.73 435.894Z" fill="url(#paint11_radial_1096_1079)"/>
<path d="M1690.3 384.966L1389.31 209.465L1362.33 126.436L1354.32 94.3355L1314.99 41.5778L1378.34 -17.4005L1380.61 -14.9389L1319.43 41.9769L1357.46 93.2045L1365.53 125.505L1391.88 206.637L1691 381.706L1690.3 384.966Z" fill="url(#paint12_radial_1096_1079)"/>
<path d="M1321.93 524.148L1257.45 486.925L1290.18 365.576L1327.44 297.948L1362.49 241.299L1389.15 207.203L1415.03 149.189L1840.43 -47.0316L1840.87 -43.7383L1417.3 152.216L1391.92 209.065L1365.23 243.195L1330.3 299.612L1293.18 367.006L1261.32 485.328L1323.6 521.287L1321.93 524.148Z" fill="url(#paint13_radial_1096_1079)"/>
<path d="M1202.11 181.19H1198.77V131.492L1207.18 76.7053L1210.48 77.2375L1202.11 131.758V181.19Z" fill="url(#paint14_radial_1096_1079)"/>
<path d="M440.835 322.339L439 319.578L569.081 227.494L615.548 182.221L617.85 184.616L571.149 230.055L440.835 322.339Z" fill="url(#paint15_radial_1096_1079)"/>
<path d="M649.406 170.645L646.237 169.58L666.385 110.436L722.059 58.2434L750.046 -4.12787L731.833 -80.1044L721.859 -151.723L666.719 -201.221L668.954 -203.683L724.995 -153.386L735.102 -80.7032L753.549 -3.79523L724.594 60.4388L669.287 112.265L649.406 170.645Z" fill="url(#paint16_radial_1096_1079)"/>
<path d="M739.739 196.159L687.834 170.878L698.309 149.954L701.311 151.451L692.337 169.347L738.271 191.734L766.892 136.249L723.994 106.011L706.248 138.112L666.952 112.731L524.599 -9.4281L526.534 -12.1225L668.82 110.003L705.047 133.388L722.893 101.155L771.162 135.218L739.739 196.159Z" fill="url(#paint17_radial_1096_1079)"/>
<path d="M847.651 171.676L792.077 152.116L768.16 137.147L769.928 134.32L793.712 149.189L848.752 168.549L847.651 171.676Z" fill="url(#paint18_radial_1096_1079)"/>
<path d="M1178.89 33.8936L1074.42 28.7376L926.275 -8.11966L870.101 -23.5212L786.84 -89.5848L767.326 -167.99L767.392 -168.322L778.5 -245.363L781.803 -244.898L770.728 -168.156L789.809 -91.4809L871.936 -26.3487L927.109 -11.3463L1004.2 7.78088L1074.92 25.4777L1178.89 30.5672L1256.88 25.5775L1206.85 -85.4267L1207.65 -86.2251L1292.68 -170.351L1295.05 -167.99L1210.82 -84.6616L1261.89 28.5713L1178.89 33.8936Z" fill="url(#paint19_radial_1096_1079)"/>
<path d="M1108.94 -70.5242L1108.51 -73.8174L1206.41 -86.3914L1176.93 -152.056L1213.65 -222.61L1216.62 -221.08L1180.63 -151.956L1211.28 -83.6637L1108.94 -70.5242Z" fill="url(#paint20_radial_1096_1079)"/>
<path d="M1249.18 381.343L1225.96 378.349L1168.99 347.546L1157.11 300.942V134.22L1133.69 88.2148L1057.1 78.6346L851.954 20.2884L814.127 -7.78702L751.948 -2.3316L751.648 -5.62479L815.094 -11.2133L853.455 17.2613L1057.77 75.3747L1135.86 85.1212L1160.45 133.422V300.743L1171.89 345.317L1227.26 375.289L1249.58 378.017L1249.18 381.343Z" fill="url(#paint21_radial_1096_1079)"/>
<path d="M1170.12 444.413L1118.95 424.72L1110.44 384.47L1113.68 383.771L1121.85 422.259L1168.52 440.221L1195.64 387.231L1203.08 364.411L1206.25 365.443L1198.71 388.528L1170.12 444.413Z" fill="url(#paint22_radial_1096_1079)"/>
<path d="M1132.43 468.729L1129.32 467.432L1144 432.504L1147.07 433.801L1132.43 468.729Z" fill="url(#paint23_radial_1096_1079)"/>
<path d="M1041.89 475.449L1034.22 449.403L1070.08 441.086L1059.87 389.693L1023.51 397.177L1019.44 376.719L1064.78 237.241L1067.95 238.272L1022.88 376.919L1026.15 393.252L1062.51 385.767L1073.98 443.581L1038.39 451.831L1045.1 474.517L1041.89 475.449Z" fill="url(#paint24_radial_1096_1079)"/>
<path d="M547.999 380.644L545.297 378.715L623.687 269.507L669.154 202.113L688.635 169.281L691.504 170.977L671.989 203.876L626.423 271.403L547.999 380.644Z" fill="url(#paint25_radial_1096_1079)"/>
<path d="M626.556 423.323L623.52 421.959L677.56 301.907L715.388 229.623L737.571 193.098L740.439 194.828L718.29 231.253L680.562 303.371L626.556 423.323Z" fill="url(#paint26_radial_1096_1079)"/>
<path d="M639.099 137.114L605.941 114.461L630.292 84.1898L674.424 38.9166L703.012 -24.5856L731.966 -81.2354L734.935 -79.7385L706.014 -23.1553L677.026 41.0123L632.794 86.3853L610.778 113.762L641 134.353L639.099 137.114Z" fill="url(#paint27_radial_1096_1079)"/>
<path d="M813.126 -8.78494L790.876 -53.1267L793.878 -54.6236L816.128 -10.2486L813.126 -8.78494Z" fill="url(#paint28_radial_1096_1079)"/>
<path d="M984.151 267.046L911.198 243.76L827.136 215.984L828.17 212.824L912.232 240.6L985.152 263.886L984.151 267.046Z" fill="url(#paint29_radial_1096_1079)"/>
<path d="M1113.68 310.689L1110.44 309.924L1120.98 265.083L1124.25 265.848L1113.68 310.689Z" fill="url(#paint30_radial_1096_1079)"/>
<path d="M1327.24 298.88L1320 208.2L1323.33 207.934L1330.54 298.614L1327.24 298.88Z" fill="url(#paint31_radial_1096_1079)"/>
<path d="M1290.51 155.709H1287.17V314.415H1290.51V155.709Z" fill="url(#paint32_radial_1096_1079)"/>
<path d="M1145.57 -15.6375L1145.34 -15.6707L1091.73 -21.7914L1020.84 -35.8624L944.355 -52.2286L888.181 -65.6675L855.39 -101.028L846.584 -170.884L826.202 -207.175L829.104 -208.805L849.853 -171.615L858.559 -102.492L889.949 -68.6613L945.089 -55.4885L1021.51 -39.1223L1092.26 -25.0513L1145.5 -18.9972L1232.2 -33.2677L1327.87 -107.781L1329.9 -105.153L1233.57 -30.1076L1233.17 -30.041L1145.57 -15.6375Z" fill="url(#paint33_radial_1096_1079)"/>
<path d="M1219.46 30.3676L1156.91 -79.6719L1125.49 -148.097L923.54 -180.83L848.452 -169.753L769.327 -166.426L723.994 -150.991L673.991 -132.164L672.823 -135.257L722.86 -154.118L768.96 -169.753L848.118 -173.079L923.573 -184.19L923.807 -184.156L1127.79 -151.091L1159.88 -81.1689L1222.33 28.7043L1219.46 30.3676Z" fill="url(#paint34_radial_1096_1079)"/>
<path d="M1162.41 -145.403L1161.45 -148.596L1178.29 -153.586L1179.26 -150.393L1162.41 -145.403Z" fill="url(#paint35_radial_1096_1079)"/>
<path d="M781.77 482.068L778.534 481.303L794.379 414.774L813.026 355.862L816.195 356.86L797.581 415.672L781.77 482.068Z" fill="url(#paint36_radial_1096_1079)"/>
<path d="M1019.58 549.596L999.963 492.547L962.335 452.064L919.037 438.159L842.881 424.288L795.113 416.57L755.484 391.821L691.804 381.243L655.944 353.434L588.562 320.402L568.38 229.224L571.616 228.525L591.464 318.107L657.879 350.706L693.171 378.116L756.985 388.828L796.58 413.577L843.448 420.995L919.837 434.932L964.17 449.17L1003 491.116L1022.75 548.498L1019.58 549.596Z" fill="url(#paint37_radial_1096_1079)"/>
<path d="M948.859 502.194L902.758 493.312L829.705 469.661L786.006 456.688L739.705 452.197L675.925 429.111L630.826 405.094L555.871 366.108L518.944 261.224L519.077 260.759L539.459 180.391L588.795 127.933L591.23 130.228L542.494 182.021L522.446 261.091L558.573 363.746L632.394 402.167L677.293 426.084L740.64 449.003L786.64 453.428L830.705 466.501L903.559 490.085L949.492 498.9L948.859 502.194Z" fill="url(#paint38_radial_1096_1079)"/>
<path d="M846.55 278.954L843.581 277.391L869.967 228.093L872.903 229.656L846.55 278.954Z" fill="url(#paint39_radial_1096_1079)"/>
<path d="M948.692 254.106L945.589 252.941L971.175 186.013L974.31 187.21L948.692 254.106Z" fill="url(#paint40_radial_1096_1079)"/>
<path d="M946.223 45.6693L943.221 44.239L964.337 -0.734894L967.339 0.695496L946.223 45.6693Z" fill="url(#paint41_radial_1096_1079)"/>
<path d="M765.191 93.3376L762.222 91.8074L790.91 36.2221L793.878 37.7523L765.191 93.3376Z" fill="url(#paint42_radial_1096_1079)"/>
<path d="M1156.74 404.03L1143.9 351.704L1147.14 350.906L1159.98 403.231L1156.74 404.03Z" fill="url(#paint43_radial_1096_1079)"/>
</g>
<g filter="url(#filter0_f_1096_1079)">
<rect x="1380" y="-406" width="621" height="1082" fill="#FCB108"/>
</g>
<g filter="url(#filter1_f_1096_1079)">
<rect x="-81" y="-406" width="621" height="1082" fill="#FCB108"/>
</g>
<path d="M749.147 156.072C749.573 156.072 749.915 155.965 750.171 155.752C750.427 155.539 750.555 155.229 750.555 154.824V149.672H755.291V154.696C755.291 155.613 755.76 156.072 756.699 156.072H757.723C757.936 156.072 758.043 156.904 758.043 158.568C758.043 160.189 757.936 161 757.723 161H756.475C754.725 161 753.52 160.531 752.859 159.592C752.453 160.083 751.952 160.445 751.355 160.68C750.779 160.893 750.043 161 749.147 161H739.163C737.221 161 735.728 160.477 734.683 159.432C733.637 158.387 733.115 156.893 733.115 154.952V149.672H737.851V154.312C737.851 154.909 737.979 155.357 738.235 155.656C738.491 155.933 738.917 156.072 739.515 156.072H749.147ZM748.795 163.912V167.88H739.579V163.912H748.795ZM742.171 173.064V169.224H746.203V173.064H742.171ZM760.8 156.072C761.248 156.072 761.6 155.965 761.856 155.752C762.112 155.517 762.24 155.197 762.24 154.792V149.672H766.944V154.696C766.944 155.613 767.424 156.072 768.384 156.072H769.408C769.621 156.072 769.728 156.893 769.728 158.536C769.728 160.179 769.621 161 769.408 161H768.16C766.41 161 765.205 160.531 764.544 159.592C764.138 160.083 763.637 160.445 763.04 160.68C762.442 160.893 761.696 161 760.8 161H757.408C757.194 161 757.088 160.189 757.088 158.568C757.088 156.904 757.194 156.072 757.408 156.072H760.8ZM764.128 163.912V167.88H754.912V163.912H764.128ZM778.176 155.016C778.176 156.872 777.621 158.333 776.512 159.4C775.424 160.467 773.952 161 772.096 161H769.088C768.874 161 768.768 160.189 768.768 158.568C768.768 156.904 768.874 156.072 769.088 156.072H772.096C772.522 156.072 772.864 155.955 773.12 155.72C773.397 155.485 773.536 155.176 773.536 154.792V149.672H778.176V155.016ZM778.912 142.824V146.792H769.696V142.824H778.912ZM803.232 161.032C803.232 160.285 802.784 159.912 801.888 159.912H795.776V153.448C795.776 151.485 796.341 149.907 797.472 148.712C798.624 147.517 800.171 146.92 802.112 146.92H806.752L807.04 151.688H802.176C801.685 151.688 801.28 151.848 800.96 152.168C800.64 152.467 800.48 152.883 800.48 153.416V155.048H802.656C804.512 155.048 805.856 155.517 806.688 156.456C807.52 157.395 807.936 158.739 807.936 160.488C807.936 161.96 807.541 163.304 806.752 164.52C805.984 165.757 804.907 166.739 803.52 167.464C802.133 168.189 800.576 168.552 798.848 168.552H796.384C793.589 168.552 791.424 167.741 789.888 166.12C788.373 164.52 787.616 162.291 787.616 159.432V152.872H792.352V159.304C792.352 160.755 792.683 161.832 793.344 162.536C794.005 163.261 795.04 163.624 796.448 163.624H798.976C800.384 163.624 801.44 163.389 802.144 162.92C802.869 162.451 803.232 161.821 803.232 161.032ZM818.591 156.072C818.698 156.072 818.773 156.221 818.815 156.52C818.879 156.819 818.911 157.501 818.911 158.568C818.911 159.592 818.879 160.253 818.815 160.552C818.773 160.851 818.698 161 818.591 161H817.311C815.434 161 814.005 160.467 813.023 159.4C812.063 158.333 811.583 156.808 811.583 154.824V140.424H816.319V154.472C816.319 155.027 816.426 155.432 816.639 155.688C816.853 155.944 817.194 156.072 817.663 156.072H818.591ZM838.628 150.792C839.375 151.603 839.908 152.392 840.228 153.16C840.57 153.928 840.74 154.728 840.74 155.56C840.74 157.181 840.186 158.493 839.076 159.496C837.988 160.499 836.495 161 834.596 161H830.884C829.668 161 828.762 160.968 828.164 160.904C827.588 160.84 827.076 160.691 826.628 160.456C826.138 160.669 825.54 160.819 824.836 160.904C824.154 160.968 823.258 161 822.148 161H818.276C818.063 161 817.956 160.189 817.956 158.568C817.956 156.904 818.063 156.072 818.276 156.072H821.252C821.018 155.773 820.826 155.368 820.676 154.856C820.527 154.344 820.452 153.832 820.452 153.32C820.452 152.147 820.74 151.069 821.316 150.088C821.892 149.107 822.682 148.339 823.684 147.784C824.687 147.208 825.796 146.92 827.012 146.92C827.695 146.92 828.367 147.037 829.028 147.272L828.868 147.112L832.1 143.784L838.628 150.792ZM834.372 156.072C835.439 156.072 835.972 155.741 835.972 155.08C835.972 154.824 835.908 154.579 835.78 154.344C835.652 154.109 835.396 153.8 835.012 153.416L832.772 151.112C832.964 151.688 833.06 152.296 833.06 152.936C833.06 153.533 832.954 154.12 832.74 154.696C832.548 155.251 832.282 155.709 831.94 156.072H834.372ZM826.66 156.136C828.047 155.432 828.74 154.515 828.74 153.384C828.74 152.829 828.559 152.371 828.196 152.008C827.834 151.645 827.354 151.464 826.756 151.464C826.159 151.464 825.679 151.645 825.316 152.008C824.975 152.371 824.804 152.829 824.804 153.384C824.804 154.557 825.423 155.475 826.66 156.136ZM850.18 155.208C850.18 154.099 850.457 153 851.012 151.912C851.566 150.803 852.452 149.619 853.668 148.36L852.292 146.952L855.652 143.496C857.828 145.416 859.481 147.037 860.612 148.36C861.742 149.661 862.51 150.803 862.916 151.784C863.342 152.765 863.556 153.8 863.556 154.888C863.556 156.125 863.268 157.235 862.692 158.216C862.116 159.197 861.294 159.965 860.228 160.52C859.182 161.053 857.977 161.32 856.612 161.32C854.649 161.32 853.081 160.765 851.908 159.656C850.756 158.525 850.18 157.043 850.18 155.208ZM858.98 154.76C858.98 154.184 858.82 153.64 858.5 153.128C858.201 152.595 857.657 151.997 856.868 151.336C856.142 151.997 855.609 152.616 855.268 153.192C854.948 153.747 854.788 154.301 854.788 154.856C854.788 155.325 854.969 155.72 855.332 156.04C855.694 156.36 856.174 156.52 856.772 156.52C857.433 156.52 857.966 156.36 858.372 156.04C858.777 155.699 858.98 155.272 858.98 154.76ZM874.218 156.072C874.324 156.072 874.399 156.221 874.442 156.52C874.506 156.819 874.538 157.501 874.538 158.568C874.538 159.592 874.506 160.253 874.442 160.552C874.399 160.851 874.324 161 874.218 161H872.938C871.06 161 869.631 160.467 868.65 159.4C867.69 158.333 867.21 156.808 867.21 154.824V140.424H871.946V154.472C871.946 155.027 872.052 155.432 872.266 155.688C872.479 155.944 872.82 156.072 873.29 156.072H874.218ZM887.247 134.12L887.983 136.904L876.079 141.544V138.472L887.247 134.12ZM881.999 156.072C882.511 156.072 882.905 155.987 883.183 155.816C883.46 155.645 883.599 155.411 883.599 155.112C883.599 154.835 883.524 154.579 883.375 154.344C883.247 154.088 883.033 153.811 882.735 153.512L876.079 147.016V143.304L888.495 138.6L889.743 143.208L882.063 146.12L886.287 150.344C888.079 152.136 889.423 153.427 890.319 154.216C891.236 154.984 891.983 155.485 892.559 155.72C893.135 155.955 893.796 156.072 894.543 156.072C894.756 156.072 894.863 156.904 894.863 158.568C894.863 160.189 894.756 161 894.543 161C893.369 161 892.431 160.936 891.727 160.808C891.023 160.68 890.383 160.435 889.807 160.072C889.231 159.709 888.58 159.155 887.855 158.408C887.471 159.219 886.788 159.859 885.807 160.328C884.847 160.776 883.716 161 882.415 161H873.903C873.689 161 873.583 160.189 873.583 158.568C873.583 156.904 873.689 156.072 873.903 156.072H881.999ZM899.008 156.072C899.221 156.072 899.328 156.904 899.328 158.568C899.328 159.613 899.296 160.285 899.232 160.584C899.168 160.861 899.093 161 899.008 161H894.208C893.994 161 893.888 160.189 893.888 158.568C893.888 156.904 893.994 156.072 894.208 156.072H899.008ZM903.5 156.072C903.713 156.072 903.82 156.904 903.82 158.568C903.82 159.613 903.788 160.285 903.724 160.584C903.66 160.861 903.585 161 903.5 161H898.7C898.487 161 898.38 160.189 898.38 158.568C898.38 156.904 898.487 156.072 898.7 156.072H903.5ZM907.993 156.072C908.206 156.072 908.313 156.904 908.313 158.568C908.313 159.613 908.281 160.285 908.217 160.584C908.153 160.861 908.078 161 907.993 161H903.193C902.979 161 902.873 160.189 902.873 158.568C902.873 156.904 902.979 156.072 903.193 156.072H907.993ZM912.485 156.072C912.698 156.072 912.805 156.904 912.805 158.568C912.805 159.613 912.773 160.285 912.709 160.584C912.645 160.861 912.57 161 912.485 161H907.685C907.472 161 907.365 160.189 907.365 158.568C907.365 156.904 907.472 156.072 907.685 156.072H912.485ZM916.978 156.072C917.191 156.072 917.298 156.904 917.298 158.568C917.298 159.613 917.266 160.285 917.202 160.584C917.138 160.861 917.063 161 916.978 161H912.178C911.964 161 911.858 160.189 911.858 158.568C911.858 156.904 911.964 156.072 912.178 156.072H916.978ZM921.47 156.072C921.683 156.072 921.79 156.904 921.79 158.568C921.79 159.613 921.758 160.285 921.694 160.584C921.63 160.861 921.555 161 921.47 161H916.67C916.457 161 916.35 160.189 916.35 158.568C916.35 156.904 916.457 156.072 916.67 156.072H921.47ZM925.963 156.072C926.176 156.072 926.283 156.904 926.283 158.568C926.283 159.613 926.251 160.285 926.187 160.584C926.123 160.861 926.048 161 925.963 161H921.163C920.949 161 920.843 160.189 920.843 158.568C920.843 156.904 920.949 156.072 921.163 156.072H925.963ZM930.455 156.072C930.668 156.072 930.775 156.904 930.775 158.568C930.775 159.613 930.743 160.285 930.679 160.584C930.615 160.861 930.54 161 930.455 161H925.655C925.442 161 925.335 160.189 925.335 158.568C925.335 156.904 925.442 156.072 925.655 156.072H930.455ZM934.948 156.072C935.161 156.072 935.268 156.904 935.268 158.568C935.268 159.613 935.236 160.285 935.172 160.584C935.108 160.861 935.033 161 934.948 161H930.148C929.934 161 929.828 160.189 929.828 158.568C929.828 156.904 929.934 156.072 930.148 156.072H934.948ZM939.44 156.072C939.653 156.072 939.76 156.904 939.76 158.568C939.76 159.613 939.728 160.285 939.664 160.584C939.6 160.861 939.525 161 939.44 161H934.64C934.427 161 934.32 160.189 934.32 158.568C934.32 156.904 934.427 156.072 934.64 156.072H939.44ZM943.933 156.072C944.146 156.072 944.253 156.904 944.253 158.568C944.253 159.613 944.221 160.285 944.157 160.584C944.093 160.861 944.018 161 943.933 161H939.133C938.919 161 938.813 160.189 938.813 158.568C938.813 156.904 938.919 156.072 939.133 156.072H943.933ZM948.425 156.072C948.638 156.072 948.745 156.904 948.745 158.568C948.745 159.613 948.713 160.285 948.649 160.584C948.585 160.861 948.51 161 948.425 161H943.625C943.412 161 943.305 160.189 943.305 158.568C943.305 156.904 943.412 156.072 943.625 156.072H948.425ZM952.918 156.072C953.131 156.072 953.238 156.904 953.238 158.568C953.238 159.613 953.206 160.285 953.142 160.584C953.078 160.861 953.003 161 952.918 161H948.118C947.904 161 947.798 160.189 947.798 158.568C947.798 156.904 947.904 156.072 948.118 156.072H952.918ZM957.41 156.072C957.623 156.072 957.73 156.904 957.73 158.568C957.73 159.613 957.698 160.285 957.634 160.584C957.57 160.861 957.495 161 957.41 161H952.61C952.397 161 952.29 160.189 952.29 158.568C952.29 156.904 952.397 156.072 952.61 156.072H957.41ZM961.903 156.072C962.116 156.072 962.223 156.904 962.223 158.568C962.223 159.613 962.191 160.285 962.127 160.584C962.063 160.861 961.988 161 961.903 161H957.103C956.889 161 956.783 160.189 956.783 158.568C956.783 156.904 956.889 156.072 957.103 156.072H961.903ZM966.395 156.072C966.608 156.072 966.715 156.904 966.715 158.568C966.715 159.613 966.683 160.285 966.619 160.584C966.555 160.861 966.48 161 966.395 161H961.595C961.382 161 961.275 160.189 961.275 158.568C961.275 156.904 961.382 156.072 961.595 156.072H966.395ZM970.888 156.072C971.101 156.072 971.208 156.904 971.208 158.568C971.208 159.613 971.176 160.285 971.112 160.584C971.048 160.861 970.973 161 970.888 161H966.088C965.874 161 965.768 160.189 965.768 158.568C965.768 156.904 965.874 156.072 966.088 156.072H970.888ZM975.38 156.072C975.593 156.072 975.7 156.904 975.7 158.568C975.7 159.613 975.668 160.285 975.604 160.584C975.54 160.861 975.465 161 975.38 161H970.58C970.367 161 970.26 160.189 970.26 158.568C970.26 156.904 970.367 156.072 970.58 156.072H975.38ZM979.873 156.072C980.086 156.072 980.193 156.904 980.193 158.568C980.193 159.613 980.161 160.285 980.097 160.584C980.033 160.861 979.958 161 979.873 161H975.073C974.859 161 974.753 160.189 974.753 158.568C974.753 156.904 974.859 156.072 975.073 156.072H979.873ZM984.365 156.072C984.578 156.072 984.685 156.904 984.685 158.568C984.685 159.613 984.653 160.285 984.589 160.584C984.525 160.861 984.45 161 984.365 161H979.565C979.352 161 979.245 160.189 979.245 158.568C979.245 156.904 979.352 156.072 979.565 156.072H984.365ZM988.858 156.072C989.071 156.072 989.178 156.904 989.178 158.568C989.178 159.613 989.146 160.285 989.082 160.584C989.018 160.861 988.943 161 988.858 161H984.058C983.844 161 983.738 160.189 983.738 158.568C983.738 156.904 983.844 156.072 984.058 156.072H988.858ZM993.35 156.072C993.563 156.072 993.67 156.904 993.67 158.568C993.67 159.613 993.638 160.285 993.574 160.584C993.51 160.861 993.435 161 993.35 161H988.55C988.337 161 988.23 160.189 988.23 158.568C988.23 156.904 988.337 156.072 988.55 156.072H993.35ZM997.843 156.072C998.056 156.072 998.163 156.904 998.163 158.568C998.163 159.613 998.131 160.285 998.067 160.584C998.003 160.861 997.928 161 997.843 161H993.043C992.829 161 992.723 160.189 992.723 158.568C992.723 156.904 992.829 156.072 993.043 156.072H997.843ZM1002.34 156.072C1002.55 156.072 1002.66 156.904 1002.66 158.568C1002.66 159.613 1002.62 160.285 1002.56 160.584C1002.5 160.861 1002.42 161 1002.34 161H997.535C997.322 161 997.215 160.189 997.215 158.568C997.215 156.904 997.322 156.072 997.535 156.072H1002.34ZM1006.83 156.072C1007.04 156.072 1007.15 156.904 1007.15 158.568C1007.15 159.613 1007.12 160.285 1007.05 160.584C1006.99 160.861 1006.91 161 1006.83 161H1002.03C1001.81 161 1001.71 160.189 1001.71 158.568C1001.71 156.904 1001.81 156.072 1002.03 156.072H1006.83ZM1011.32 156.072C1011.53 156.072 1011.64 156.904 1011.64 158.568C1011.64 159.613 1011.61 160.285 1011.54 160.584C1011.48 160.861 1011.41 161 1011.32 161H1006.52C1006.31 161 1006.2 160.189 1006.2 158.568C1006.2 156.904 1006.31 156.072 1006.52 156.072H1011.32ZM1015.81 156.072C1016.03 156.072 1016.13 156.904 1016.13 158.568C1016.13 159.613 1016.1 160.285 1016.04 160.584C1015.97 160.861 1015.9 161 1015.81 161H1011.01C1010.8 161 1010.69 160.189 1010.69 158.568C1010.69 156.904 1010.8 156.072 1011.01 156.072H1015.81ZM1017.75 156.072C1018.9 156.072 1019.47 155.581 1019.47 154.6V149.672H1024.11V154.6C1024.11 155.581 1024.68 156.072 1025.81 156.072C1026.36 156.072 1026.78 155.944 1027.06 155.688C1027.33 155.432 1027.47 155.069 1027.47 154.6V149.672H1032.15V154.6C1032.15 155.581 1032.67 156.072 1033.71 156.072C1034.25 156.072 1034.64 155.944 1034.9 155.688C1035.17 155.432 1035.31 155.069 1035.31 154.6V149.672H1039.95V154.728C1039.95 156.669 1039.4 158.205 1038.29 159.336C1037.18 160.445 1035.64 161 1033.68 161C1031.72 161 1030.39 160.499 1029.68 159.496C1029.28 160.008 1028.76 160.392 1028.15 160.648C1027.53 160.883 1026.74 161 1025.78 161C1024.73 161 1023.88 160.883 1023.22 160.648C1022.56 160.392 1022.04 160.008 1021.68 159.496C1021.28 160.008 1020.75 160.392 1020.11 160.648C1019.49 160.883 1018.71 161 1017.75 161H1015.51C1015.29 161 1015.19 160.189 1015.19 158.568C1015.19 156.904 1015.29 156.072 1015.51 156.072H1017.75ZM1031.76 137.64V141.48H1027.6V137.64H1031.76ZM1034.29 142.824V146.792H1025.07V142.824H1034.29ZM1056.54 159.528C1056.54 162.344 1055.79 164.552 1054.3 166.152C1052.8 167.752 1050.76 168.552 1048.15 168.552H1043.64L1043.26 163.688H1048.7C1049.7 163.688 1050.48 163.443 1051.03 162.952C1051.61 162.483 1051.9 161.832 1051.9 161H1050.1C1047.74 161 1046.04 160.509 1045.02 159.528C1044.01 158.525 1043.51 156.936 1043.51 154.76C1043.51 153.395 1043.78 152.179 1044.31 151.112C1044.87 150.024 1045.64 149.181 1046.62 148.584C1047.62 147.965 1048.76 147.656 1050.04 147.656C1052.07 147.656 1053.66 148.307 1054.81 149.608C1055.96 150.888 1056.54 152.68 1056.54 154.984V159.528ZM1048.12 154.536C1048.12 155.155 1048.27 155.603 1048.57 155.88C1048.89 156.136 1049.43 156.264 1050.2 156.264H1051.96V154.792C1051.96 153.96 1051.78 153.331 1051.42 152.904C1051.08 152.477 1050.58 152.264 1049.94 152.264C1049.35 152.264 1048.89 152.477 1048.57 152.904C1048.27 153.309 1048.12 153.853 1048.12 154.536ZM1058.39 163.624C1059.73 163.624 1060.76 163.283 1061.46 162.6C1062.19 161.939 1062.55 160.968 1062.55 159.688V149.672H1067.29V154.536C1067.29 155.069 1067.41 155.464 1067.67 155.72C1067.93 155.955 1068.33 156.072 1068.89 156.072H1069.69C1069.9 156.072 1070.01 156.904 1070.01 158.568C1070.01 160.189 1069.9 161 1069.69 161H1069.14C1068.31 161 1067.68 160.819 1067.25 160.456C1067.15 162.013 1066.73 163.4 1066.01 164.616C1065.3 165.853 1064.31 166.813 1063.03 167.496C1061.77 168.2 1060.29 168.552 1058.58 168.552H1057.37L1056.98 163.624H1058.39ZM1073.23 156.072C1072.12 155.304 1071.57 154.184 1071.57 152.712C1071.57 151.539 1071.83 150.461 1072.37 149.48C1072.92 148.477 1073.69 147.677 1074.67 147.08C1075.67 146.483 1076.83 146.184 1078.16 146.184C1080.27 146.184 1081.89 146.813 1083.02 148.072C1084.15 149.331 1084.72 151.101 1084.72 153.384V154.536C1084.72 156.648 1084 158.259 1082.57 159.368C1081.14 160.456 1079.07 161 1076.37 161H1069.36C1069.14 161 1069.04 160.189 1069.04 158.568C1069.04 156.904 1069.14 156.072 1069.36 156.072H1072.56H1073.23ZM1079.63 155.88C1080.01 155.475 1080.21 154.792 1080.21 153.832V153.512C1080.21 152.637 1080.02 151.976 1079.66 151.528C1079.3 151.059 1078.78 150.824 1078.09 150.824C1077.56 150.824 1077.1 151.016 1076.72 151.4C1076.35 151.763 1076.17 152.221 1076.17 152.776C1076.17 153.459 1076.43 154.045 1076.94 154.536C1077.47 155.005 1078.37 155.453 1079.63 155.88ZM1075.6 143.656V139.688H1080.53V143.656H1075.6ZM1110.2 156.072C1110.63 156.072 1110.97 155.965 1111.22 155.752C1111.48 155.539 1111.61 155.229 1111.61 154.824V149.672H1116.34V154.696C1116.34 155.613 1116.81 156.072 1117.75 156.072H1118.78C1118.99 156.072 1119.1 156.904 1119.1 158.568C1119.1 160.189 1118.99 161 1118.78 161H1117.53C1115.78 161 1114.57 160.531 1113.91 159.592C1113.51 160.083 1113 160.445 1112.41 160.68C1111.83 160.893 1111.1 161 1110.2 161H1100.22C1098.27 161 1096.78 160.477 1095.74 159.432C1094.69 158.387 1094.17 156.893 1094.17 154.952V149.672H1098.9V154.312C1098.9 154.909 1099.03 155.357 1099.29 155.656C1099.54 155.933 1099.97 156.072 1100.57 156.072H1110.2ZM1109.85 143.592V147.56H1100.63V143.592H1109.85ZM1120.7 156.072C1121.85 156.072 1122.43 155.581 1122.43 154.6V149.672H1127.07V154.6C1127.07 155.581 1127.63 156.072 1128.76 156.072C1129.32 156.072 1129.73 155.944 1130.01 155.688C1130.29 155.432 1130.43 155.069 1130.43 154.6V149.672H1135.1V154.6C1135.1 155.581 1135.62 156.072 1136.67 156.072C1137.2 156.072 1137.6 155.944 1137.85 155.688C1138.13 155.432 1138.27 155.069 1138.27 154.6V149.672H1142.91V154.728C1142.91 156.669 1142.35 158.205 1141.24 159.336C1140.13 160.445 1138.6 161 1136.64 161C1134.67 161 1133.34 160.499 1132.64 159.496C1132.23 160.008 1131.72 160.392 1131.1 160.648C1130.48 160.883 1129.69 161 1128.73 161C1127.69 161 1126.83 160.883 1126.17 160.648C1125.51 160.392 1125 160.008 1124.64 159.496C1124.23 160.008 1123.71 160.392 1123.07 160.648C1122.45 160.883 1121.66 161 1120.7 161H1118.46C1118.25 161 1118.14 160.189 1118.14 158.568C1118.14 156.904 1118.25 156.072 1118.46 156.072H1120.7ZM1152.16 154.536C1152.16 155.069 1152.28 155.464 1152.54 155.72C1152.8 155.955 1153.2 156.072 1153.76 156.072H1154.56C1154.77 156.072 1154.88 156.904 1154.88 158.568C1154.88 160.189 1154.77 161 1154.56 161H1154.01C1153.18 161 1152.55 160.819 1152.12 160.456C1152.02 162.013 1151.6 163.4 1150.88 164.616C1150.17 165.853 1149.18 166.813 1147.9 167.496C1146.64 168.2 1145.16 168.552 1143.45 168.552H1140.44L1140.06 163.624H1143.26C1144.6 163.624 1145.63 163.283 1146.33 162.6C1147.06 161.939 1147.42 160.968 1147.42 159.688V149.672H1152.16V154.536ZM1173.11 156.072C1173.21 156.072 1173.29 156.221 1173.33 156.52C1173.39 156.819 1173.43 157.501 1173.43 158.568C1173.43 159.592 1173.39 160.253 1173.33 160.552C1173.29 160.851 1173.21 161 1173.11 161C1172.23 161 1171.53 161.16 1170.99 161.48C1170.46 161.821 1169.86 162.504 1169.2 163.528L1166.1 168.488H1163.95C1161.61 168.488 1159.77 167.848 1158.45 166.568C1157.13 165.309 1156.47 163.539 1156.47 161.256V161H1154.23C1154.01 161 1153.91 160.189 1153.91 158.568C1153.91 156.904 1154.01 156.072 1154.23 156.072H1156.47V154.184C1156.47 151.965 1157.04 150.216 1158.19 148.936C1159.35 147.656 1160.92 147.016 1162.93 147.016C1164.83 147.016 1166.33 147.581 1167.44 148.712C1168.55 149.821 1169.11 151.336 1169.11 153.256C1169.11 154.557 1168.73 155.784 1167.99 156.936C1167.26 158.088 1166.28 159.027 1165.04 159.752C1163.8 160.456 1162.46 160.819 1161.01 160.84V161.096C1161.01 162.077 1161.22 162.792 1161.65 163.24C1162.08 163.688 1162.78 163.912 1163.76 163.912L1165.78 160.648C1166.59 159.347 1167.31 158.387 1167.95 157.768C1168.59 157.128 1169.3 156.691 1170.07 156.456C1170.83 156.2 1171.85 156.072 1173.11 156.072ZM1164.59 153.416C1164.59 152.861 1164.44 152.435 1164.15 152.136C1163.85 151.837 1163.42 151.688 1162.87 151.688C1161.63 151.688 1161.01 152.499 1161.01 154.12V156.136C1162.14 156.136 1163.02 155.901 1163.63 155.432C1164.27 154.941 1164.59 154.269 1164.59 153.416ZM1176.65 156.072C1175.54 155.304 1174.99 154.184 1174.99 152.712C1174.99 151.539 1175.26 150.461 1175.79 149.48C1176.34 148.477 1177.11 147.677 1178.09 147.08C1179.1 146.483 1180.26 146.184 1181.58 146.184C1183.69 146.184 1185.31 146.813 1186.45 148.072C1187.58 149.331 1188.14 151.101 1188.14 153.384V154.536C1188.14 156.648 1187.43 158.259 1186 159.368C1184.57 160.456 1182.5 161 1179.79 161H1172.78C1172.57 161 1172.46 160.189 1172.46 158.568C1172.46 156.904 1172.57 156.072 1172.78 156.072H1175.98H1176.65ZM1183.05 155.88C1183.44 155.475 1183.63 154.792 1183.63 153.832V153.512C1183.63 152.637 1183.45 151.976 1183.09 151.528C1182.72 151.059 1182.2 150.824 1181.52 150.824C1180.98 150.824 1180.53 151.016 1180.14 151.4C1179.78 151.763 1179.6 152.221 1179.6 152.776C1179.6 153.459 1179.85 154.045 1180.37 154.536C1180.9 155.005 1181.79 155.453 1183.05 155.88ZM1179.02 143.656V139.688H1183.95V143.656H1179.02Z" fill="white"/>
<path d="M958.5 189C958.5 188.6 949.167 177.833 944.5 172.5L945.5 169L952 141L957 136.5L963 138C964.333 137.667 967 137.1 967 137.5C967 137.9 970.333 152 972 159C973.333 162 976.2 168.4 977 170C977.8 171.6 977.333 173.333 977 174C973.833 177.5 967.3 184.5 966.5 184.5C965.5 184.5 958.5 189.5 958.5 189Z" fill="#FCB108"/>
<path d="M970.247 107.382L962.68 110.816H958.702L951.592 107.382H912.392L934.197 128.52H948.722V130.806L960.789 142.891L972.726 130.937V128.534H987.938L1009.06 107.382H970.247ZM965.833 130.849L961.572 135.117H960.202L952.592 127.496L957.365 122.717C959.571 119.309 955.549 116.979 953.559 118.906L949.678 122.793H936.98L927.24 113.038H950.048C952.207 113.003 954.096 113.247 955.244 114.257L965.833 124.862V130.849ZM986.098 122.771H972.66L966.181 115.792C965.094 114.066 967.051 113.038 968.91 113.06H995.796L986.098 122.771Z" fill="#231F20"/>
<path d="M949.299 132.745L954.619 138.159C953.179 151.484 950.389 163.29 945.981 173.277L958.271 185.783H959.877V193.618H957.566L937.83 173.536C943.651 162.489 948.037 149.61 949.299 132.745Z" fill="#231F20"/>
<path d="M970.455 132.745L965.134 138.159C966.574 151.484 969.364 163.29 973.772 173.277L961.483 185.783L959.877 185.783V193.618H962.188L981.924 173.536C976.102 162.489 971.717 149.61 970.455 132.745Z" fill="#231F20"/>
</g>
<defs>
<filter id="filter0_f_1096_1079" x="1060" y="-726" width="1261" height="1722" filterUnits="userSpaceOnUse" color-interpolation-filters="sRGB">
<feFlood flood-opacity="0" result="BackgroundImageFix"/>
<feBlend mode="normal" in="SourceGraphic" in2="BackgroundImageFix" result="shape"/>
<feGaussianBlur stdDeviation="160" result="effect1_foregroundBlur_1096_1079"/>
</filter>
<filter id="filter1_f_1096_1079" x="-401" y="-726" width="1261" height="1722" filterUnits="userSpaceOnUse" color-interpolation-filters="sRGB">
<feFlood flood-opacity="0" result="BackgroundImageFix"/>
<feBlend mode="normal" in="SourceGraphic" in2="BackgroundImageFix" result="shape"/>
<feGaussianBlur stdDeviation="160" result="effect1_foregroundBlur_1096_1079"/>
</filter>
<radialGradient id="paint0_radial_1096_1079" cx="0" cy="0" r="1" gradientUnits="userSpaceOnUse" gradientTransform="translate(7481.49 1245.3) rotate(-90) scale(13222.7 13252.5)">
<stop/>
<stop offset="1" stop-color="#FCB108"/>
</radialGradient>
<radialGradient id="paint1_radial_1096_1079" cx="0" cy="0" r="1" gradientUnits="userSpaceOnUse" gradientTransform="translate(7481.49 1245.3) rotate(-90) scale(13222.7 13252.5)">
<stop/>
<stop offset="1" stop-color="#FCB108"/>
</radialGradient>
<radialGradient id="paint2_radial_1096_1079" cx="0" cy="0" r="1" gradientUnits="userSpaceOnUse" gradientTransform="translate(7481.49 1245.3) rotate(-90) scale(13222.7 13252.5)">
<stop/>
<stop offset="1" stop-color="#FCB108"/>
</radialGradient>
<radialGradient id="paint3_radial_1096_1079" cx="0" cy="0" r="1" gradientUnits="userSpaceOnUse" gradientTransform="translate(7481.49 1245.3) rotate(-90) scale(13222.7 13252.5)">
<stop/>
<stop offset="1" stop-color="#FCB108"/>
</radialGradient>
<radialGradient id="paint4_radial_1096_1079" cx="0" cy="0" r="1" gradientUnits="userSpaceOnUse" gradientTransform="translate(7481.49 1245.3) rotate(-90) scale(13222.7 13252.5)">
<stop/>
<stop offset="1" stop-color="#FCB108"/>
</radialGradient>
<radialGradient id="paint5_radial_1096_1079" cx="0" cy="0" r="1" gradientUnits="userSpaceOnUse" gradientTransform="translate(7481.49 1245.3) rotate(-90) scale(13222.7 13252.5)">
<stop/>
<stop offset="1" stop-color="#FCB108"/>
</radialGradient>
<radialGradient id="paint6_radial_1096_1079" cx="0" cy="0" r="1" gradientUnits="userSpaceOnUse" gradientTransform="translate(7481.49 1245.3) rotate(-90) scale(13222.7 13252.5)">
<stop/>
<stop offset="1" stop-color="#FCB108"/>
</radialGradient>
<radialGradient id="paint7_radial_1096_1079" cx="0" cy="0" r="1" gradientUnits="userSpaceOnUse" gradientTransform="translate(7481.49 1245.3) rotate(-90) scale(13222.7 13252.5)">
<stop/>
<stop offset="1" stop-color="#FCB108"/>
</radialGradient>
<radialGradient id="paint8_radial_1096_1079" cx="0" cy="0" r="1" gradientUnits="userSpaceOnUse" gradientTransform="translate(7481.49 1245.3) rotate(-90) scale(13222.7 13252.5)">
<stop/>
<stop offset="1" stop-color="#FCB108"/>
</radialGradient>
<radialGradient id="paint9_radial_1096_1079" cx="0" cy="0" r="1" gradientUnits="userSpaceOnUse" gradientTransform="translate(7481.49 1245.3) rotate(-90) scale(13222.7 13252.5)">
<stop/>
<stop offset="1" stop-color="#FCB108"/>
</radialGradient>
<radialGradient id="paint10_radial_1096_1079" cx="0" cy="0" r="1" gradientUnits="userSpaceOnUse" gradientTransform="translate(7481.49 1245.3) rotate(-90) scale(13222.7 13252.5)">
<stop/>
<stop offset="1" stop-color="#FCB108"/>
</radialGradient>
<radialGradient id="paint11_radial_1096_1079" cx="0" cy="0" r="1" gradientUnits="userSpaceOnUse" gradientTransform="translate(7481.49 1245.3) rotate(-90) scale(13222.7 13252.5)">
<stop/>
<stop offset="1" stop-color="#FCB108"/>
</radialGradient>
<radialGradient id="paint12_radial_1096_1079" cx="0" cy="0" r="1" gradientUnits="userSpaceOnUse" gradientTransform="translate(7481.49 1245.3) rotate(-90) scale(13222.7 13252.5)">
<stop/>
<stop offset="1" stop-color="#FCB108"/>
</radialGradient>
<radialGradient id="paint13_radial_1096_1079" cx="0" cy="0" r="1" gradientUnits="userSpaceOnUse" gradientTransform="translate(7481.49 1245.3) rotate(-90) scale(13222.7 13252.5)">
<stop/>
<stop offset="1" stop-color="#FCB108"/>
</radialGradient>
<radialGradient id="paint14_radial_1096_1079" cx="0" cy="0" r="1" gradientUnits="userSpaceOnUse" gradientTransform="translate(7481.49 1245.3) rotate(-90) scale(13222.7 13252.5)">
<stop/>
<stop offset="1" stop-color="#FCB108"/>
</radialGradient>
<radialGradient id="paint15_radial_1096_1079" cx="0" cy="0" r="1" gradientUnits="userSpaceOnUse" gradientTransform="translate(7481.49 1245.3) rotate(-90) scale(13222.7 13252.5)">
<stop/>
<stop offset="1" stop-color="#FCB108"/>
</radialGradient>
<radialGradient id="paint16_radial_1096_1079" cx="0" cy="0" r="1" gradientUnits="userSpaceOnUse" gradientTransform="translate(7481.49 1245.3) rotate(-90) scale(13222.7 13252.5)">
<stop/>
<stop offset="1" stop-color="#FCB108"/>
</radialGradient>
<radialGradient id="paint17_radial_1096_1079" cx="0" cy="0" r="1" gradientUnits="userSpaceOnUse" gradientTransform="translate(7481.49 1245.3) rotate(-90) scale(13222.7 13252.5)">
<stop/>
<stop offset="1" stop-color="#FCB108"/>
</radialGradient>
<radialGradient id="paint18_radial_1096_1079" cx="0" cy="0" r="1" gradientUnits="userSpaceOnUse" gradientTransform="translate(7481.49 1245.3) rotate(-90) scale(13222.7 13252.5)">
<stop/>
<stop offset="1" stop-color="#FCB108"/>
</radialGradient>
<radialGradient id="paint19_radial_1096_1079" cx="0" cy="0" r="1" gradientUnits="userSpaceOnUse" gradientTransform="translate(7481.49 1245.3) rotate(-90) scale(13222.7 13252.5)">
<stop/>
<stop offset="1" stop-color="#FCB108"/>
</radialGradient>
<radialGradient id="paint20_radial_1096_1079" cx="0" cy="0" r="1" gradientUnits="userSpaceOnUse" gradientTransform="translate(7481.49 1245.3) rotate(-90) scale(13222.7 13252.5)">
<stop/>
<stop offset="1" stop-color="#FCB108"/>
</radialGradient>
<radialGradient id="paint21_radial_1096_1079" cx="0" cy="0" r="1" gradientUnits="userSpaceOnUse" gradientTransform="translate(7481.49 1245.3) rotate(-90) scale(13222.7 13252.5)">
<stop/>
<stop offset="1" stop-color="#FCB108"/>
</radialGradient>
<radialGradient id="paint22_radial_1096_1079" cx="0" cy="0" r="1" gradientUnits="userSpaceOnUse" gradientTransform="translate(7481.49 1245.3) rotate(-90) scale(13222.7 13252.5)">
<stop/>
<stop offset="1" stop-color="#FCB108"/>
</radialGradient>
<radialGradient id="paint23_radial_1096_1079" cx="0" cy="0" r="1" gradientUnits="userSpaceOnUse" gradientTransform="translate(7481.49 1245.3) rotate(-90) scale(13222.7 13252.5)">
<stop/>
<stop offset="1" stop-color="#FCB108"/>
</radialGradient>
<radialGradient id="paint24_radial_1096_1079" cx="0" cy="0" r="1" gradientUnits="userSpaceOnUse" gradientTransform="translate(7481.49 1245.3) rotate(-90) scale(13222.7 13252.5)">
<stop/>
<stop offset="1" stop-color="#FCB108"/>
</radialGradient>
<radialGradient id="paint25_radial_1096_1079" cx="0" cy="0" r="1" gradientUnits="userSpaceOnUse" gradientTransform="translate(7481.49 1245.3) rotate(-90) scale(13222.7 13252.5)">
<stop/>
<stop offset="1" stop-color="#FCB108"/>
</radialGradient>
<radialGradient id="paint26_radial_1096_1079" cx="0" cy="0" r="1" gradientUnits="userSpaceOnUse" gradientTransform="translate(7481.49 1245.3) rotate(-90) scale(13222.7 13252.5)">
<stop/>
<stop offset="1" stop-color="#FCB108"/>
</radialGradient>
<radialGradient id="paint27_radial_1096_1079" cx="0" cy="0" r="1" gradientUnits="userSpaceOnUse" gradientTransform="translate(7481.49 1245.3) rotate(-90) scale(13222.7 13252.5)">
<stop/>
<stop offset="1" stop-color="#FCB108"/>
</radialGradient>
<radialGradient id="paint28_radial_1096_1079" cx="0" cy="0" r="1" gradientUnits="userSpaceOnUse" gradientTransform="translate(7481.49 1245.3) rotate(-90) scale(13222.7 13252.5)">
<stop/>
<stop offset="1" stop-color="#FCB108"/>
</radialGradient>
<radialGradient id="paint29_radial_1096_1079" cx="0" cy="0" r="1" gradientUnits="userSpaceOnUse" gradientTransform="translate(7481.49 1245.3) rotate(-90) scale(13222.7 13252.5)">
<stop/>
<stop offset="1" stop-color="#FCB108"/>
</radialGradient>
<radialGradient id="paint30_radial_1096_1079" cx="0" cy="0" r="1" gradientUnits="userSpaceOnUse" gradientTransform="translate(7481.49 1245.3) rotate(-90) scale(13222.7 13252.5)">
<stop/>
<stop offset="1" stop-color="#FCB108"/>
</radialGradient>
<radialGradient id="paint31_radial_1096_1079" cx="0" cy="0" r="1" gradientUnits="userSpaceOnUse" gradientTransform="translate(7481.49 1245.3) rotate(-90) scale(13222.7 13252.5)">
<stop/>
<stop offset="1" stop-color="#FCB108"/>
</radialGradient>
<radialGradient id="paint32_radial_1096_1079" cx="0" cy="0" r="1" gradientUnits="userSpaceOnUse" gradientTransform="translate(7481.49 1245.3) rotate(-90) scale(13222.7 13252.5)">
<stop/>
<stop offset="1" stop-color="#FCB108"/>
</radialGradient>
<radialGradient id="paint33_radial_1096_1079" cx="0" cy="0" r="1" gradientUnits="userSpaceOnUse" gradientTransform="translate(7481.49 1245.3) rotate(-90) scale(13222.7 13252.5)">
<stop/>
<stop offset="1" stop-color="#FCB108"/>
</radialGradient>
<radialGradient id="paint34_radial_1096_1079" cx="0" cy="0" r="1" gradientUnits="userSpaceOnUse" gradientTransform="translate(7481.49 1245.3) rotate(-90) scale(13222.7 13252.5)">
<stop/>
<stop offset="1" stop-color="#FCB108"/>
</radialGradient>
<radialGradient id="paint35_radial_1096_1079" cx="0" cy="0" r="1" gradientUnits="userSpaceOnUse" gradientTransform="translate(7481.49 1245.3) rotate(-90) scale(13222.7 13252.5)">
<stop/>
<stop offset="1" stop-color="#FCB108"/>
</radialGradient>
<radialGradient id="paint36_radial_1096_1079" cx="0" cy="0" r="1" gradientUnits="userSpaceOnUse" gradientTransform="translate(7481.49 1245.3) rotate(-90) scale(13222.7 13252.5)">
<stop/>
<stop offset="1" stop-color="#FCB108"/>
</radialGradient>
<radialGradient id="paint37_radial_1096_1079" cx="0" cy="0" r="1" gradientUnits="userSpaceOnUse" gradientTransform="translate(7481.49 1245.3) rotate(-90) scale(13222.7 13252.5)">
<stop/>
<stop offset="1" stop-color="#FCB108"/>
</radialGradient>
<radialGradient id="paint38_radial_1096_1079" cx="0" cy="0" r="1" gradientUnits="userSpaceOnUse" gradientTransform="translate(7481.49 1245.3) rotate(-90) scale(13222.7 13252.5)">
<stop/>
<stop offset="1" stop-color="#FCB108"/>
</radialGradient>
<radialGradient id="paint39_radial_1096_1079" cx="0" cy="0" r="1" gradientUnits="userSpaceOnUse" gradientTransform="translate(7481.49 1245.3) rotate(-90) scale(13222.7 13252.5)">
<stop/>
<stop offset="1" stop-color="#FCB108"/>
</radialGradient>
<radialGradient id="paint40_radial_1096_1079" cx="0" cy="0" r="1" gradientUnits="userSpaceOnUse" gradientTransform="translate(7481.49 1245.3) rotate(-90) scale(13222.7 13252.5)">
<stop/>
<stop offset="1" stop-color="#FCB108"/>
</radialGradient>
<radialGradient id="paint41_radial_1096_1079" cx="0" cy="0" r="1" gradientUnits="userSpaceOnUse" gradientTransform="translate(7481.49 1245.3) rotate(-90) scale(13222.7 13252.5)">
<stop/>
<stop offset="1" stop-color="#FCB108"/>
</radialGradient>
<radialGradient id="paint42_radial_1096_1079" cx="0" cy="0" r="1" gradientUnits="userSpaceOnUse" gradientTransform="translate(7481.49 1245.3) rotate(-90) scale(13222.7 13252.5)">
<stop/>
<stop offset="1" stop-color="#FCB108"/>
</radialGradient>
<radialGradient id="paint43_radial_1096_1079" cx="0" cy="0" r="1" gradientUnits="userSpaceOnUse" gradientTransform="translate(7481.49 1245.3) rotate(-90) scale(13222.7 13252.5)">
<stop/>
<stop offset="1" stop-color="#FCB108"/>
</radialGradient>
</defs>
</svg>
